<svg xmlns="http://www.w3.org/2000/svg" xmlns:xlink="http://www.w3.org/1999/xlink" width="1920" zoomAndPan="magnify" viewBox="0 0 1440 809.999993" height="1080" preserveAspectRatio="xMidYMid meet" version="1.0"><defs><clipPath id="a9d207b944"><path d="M 517 276 L 847 276 L 847 793.628906 L 517 793.628906 Z M 517 276 " clip-rule="nonzero"/></clipPath></defs><path fill="#000000" d="M 1060.921875 517.921875 C 1060.402344 517.921875 994.199219 494.066406 956.6875 482.65625 C 953.304688 481.949219 949.886719 481.710938 946.4375 481.945312 C 942.988281 482.179688 939.632812 482.878906 936.378906 484.039062 C 907.960938 496.75 880.652344 511.5 854.441406 528.292969 C 853.714844 528.75 853.039062 529.273438 852.414062 529.863281 C 851.789062 530.457031 851.226562 531.101562 850.730469 531.800781 C 850.234375 532.503906 849.808594 533.246094 849.457031 534.03125 C 849.105469 534.816406 848.832031 535.625 848.640625 536.464844 C 848.449219 537.300781 848.34375 538.152344 848.316406 539.011719 C 848.292969 539.871094 848.351562 540.722656 848.496094 541.570312 C 848.636719 542.417969 848.863281 543.242188 849.167969 544.046875 C 849.472656 544.851562 849.855469 545.617188 850.3125 546.34375 C 850.769531 547.074219 851.289062 547.75 851.878906 548.375 C 852.46875 549 853.113281 549.5625 853.816406 550.0625 C 854.515625 550.5625 855.257812 550.988281 856.042969 551.339844 C 856.824219 551.691406 857.636719 551.964844 858.472656 552.15625 C 859.3125 552.351562 860.160156 552.460938 861.019531 552.488281 C 861.878906 552.511719 862.730469 552.457031 863.578125 552.3125 C 864.425781 552.171875 865.253906 551.949219 866.058594 551.644531 C 866.859375 551.339844 867.628906 550.960938 868.355469 550.503906 C 893.203125 534.46875 919.128906 520.441406 946.144531 508.414062 C 947.757812 508.089844 949.371094 508.089844 950.984375 508.414062 C 988.582031 520.253906 1051.585938 542.984375 1052.191406 542.984375 C 1052.996094 543.269531 1053.820312 543.472656 1054.660156 543.59375 C 1055.503906 543.71875 1056.351562 543.757812 1057.203125 543.710938 C 1058.054688 543.667969 1058.890625 543.539062 1059.71875 543.328125 C 1060.542969 543.117188 1061.339844 542.832031 1062.109375 542.464844 C 1062.878906 542.097656 1063.605469 541.65625 1064.285156 541.148438 C 1064.96875 540.636719 1065.59375 540.066406 1066.164062 539.433594 C 1066.734375 538.800781 1067.238281 538.117188 1067.671875 537.382812 C 1068.109375 536.652344 1068.46875 535.882812 1068.75 535.078125 C 1069.035156 534.277344 1069.238281 533.453125 1069.359375 532.609375 C 1069.480469 531.765625 1069.519531 530.917969 1069.472656 530.070312 C 1069.429688 529.21875 1069.300781 528.378906 1069.089844 527.554688 C 1068.878906 526.730469 1068.589844 525.929688 1068.222656 525.164062 C 1067.855469 524.394531 1067.417969 523.667969 1066.90625 522.988281 C 1066.394531 522.304688 1065.824219 521.679688 1065.1875 521.109375 C 1064.554688 520.539062 1063.871094 520.039062 1063.140625 519.601562 C 1062.40625 519.167969 1061.640625 518.808594 1060.835938 518.527344 Z M 1060.921875 517.921875 " fill-opacity="1" fill-rule="nonzero"/><path fill="#000000" d="M 1099.296875 390.4375 L 993.421875 360.792969 C 986.34375 357.253906 979.667969 353.078125 973.386719 348.269531 C 967.109375 343.457031 961.339844 338.09375 956.082031 332.183594 C 947.636719 324.105469 938.359375 317.132812 928.253906 311.269531 C 927.527344 310.863281 926.769531 310.53125 925.980469 310.269531 C 925.191406 310.011719 924.386719 309.828125 923.5625 309.726562 C 922.738281 309.621094 921.910156 309.59375 921.082031 309.648438 C 920.253906 309.703125 919.4375 309.835938 918.632812 310.046875 C 917.832031 310.257812 917.054688 310.542969 916.304688 310.902344 C 915.558594 311.265625 914.851562 311.691406 914.183594 312.1875 C 913.519531 312.683594 912.90625 313.242188 912.34375 313.855469 C 911.785156 314.46875 911.289062 315.128906 910.859375 315.839844 C 910.425781 316.546875 910.066406 317.292969 909.777344 318.070312 C 909.484375 318.851562 909.273438 319.648438 909.136719 320.46875 C 909.003906 321.289062 908.945312 322.113281 908.96875 322.945312 C 908.992188 323.773438 909.09375 324.59375 909.273438 325.40625 C 909.457031 326.214844 909.710938 327.003906 910.042969 327.765625 C 910.375 328.527344 910.777344 329.25 911.246094 329.933594 C 911.71875 330.617188 912.25 331.25 912.84375 331.832031 C 913.433594 332.414062 914.078125 332.9375 914.769531 333.394531 C 922.960938 338.082031 930.539062 343.613281 937.5 349.988281 C 943.996094 357.160156 951.109375 363.652344 958.84375 369.464844 C 966.578125 375.28125 974.789062 380.3125 983.480469 384.558594 L 985.554688 385.339844 L 1092.554688 415.328125 C 1093.734375 415.5 1094.917969 415.5 1096.097656 415.328125 C 1096.804688 415.238281 1097.5 415.09375 1098.183594 414.886719 C 1098.867188 414.683594 1099.527344 414.425781 1100.167969 414.109375 C 1100.808594 413.796875 1101.417969 413.433594 1102 413.019531 C 1102.578125 412.605469 1103.121094 412.144531 1103.625 411.640625 C 1104.128906 411.136719 1104.589844 410.597656 1105.003906 410.015625 C 1105.421875 409.4375 1105.785156 408.828125 1106.097656 408.1875 C 1106.414062 407.546875 1106.675781 406.886719 1106.878906 406.203125 C 1107.085938 405.523438 1107.234375 404.828125 1107.324219 404.121094 C 1107.414062 403.414062 1107.445312 402.703125 1107.421875 401.992188 C 1107.394531 401.277344 1107.308594 400.574219 1107.167969 399.875 C 1107.023438 399.175781 1106.824219 398.496094 1106.570312 397.828125 C 1106.316406 397.164062 1106.007812 396.523438 1105.648438 395.90625 C 1105.285156 395.292969 1104.878906 394.710938 1104.421875 394.164062 C 1103.964844 393.617188 1103.464844 393.109375 1102.925781 392.644531 C 1102.386719 392.179688 1101.8125 391.761719 1101.203125 391.390625 C 1100.59375 391.019531 1099.957031 390.703125 1099.296875 390.4375 Z M 1099.296875 390.4375 " fill-opacity="1" fill-rule="nonzero"/><path fill="#000000" d="M 940.957031 119.136719 C 941.484375 118.453125 941.941406 117.730469 942.324219 116.957031 C 942.710938 116.1875 943.015625 115.386719 943.242188 114.554688 C 943.46875 113.726562 943.609375 112.878906 943.671875 112.019531 C 943.730469 111.160156 943.707031 110.304688 943.597656 109.449219 C 943.488281 108.597656 943.300781 107.761719 943.027344 106.945312 C 942.753906 106.125 942.402344 105.34375 941.976562 104.597656 C 941.546875 103.847656 941.050781 103.148438 940.488281 102.5 C 939.921875 101.847656 939.300781 101.261719 938.621094 100.734375 C 937.9375 100.207031 937.214844 99.75 936.441406 99.363281 C 935.671875 98.980469 934.871094 98.671875 934.039062 98.445312 C 933.210938 98.21875 932.363281 98.074219 931.503906 98.015625 C 930.644531 97.953125 929.789062 97.976562 928.933594 98.085938 C 928.082031 98.195312 927.246094 98.382812 926.429688 98.65625 C 925.609375 98.929688 924.828125 99.28125 924.082031 99.707031 C 923.332031 100.132812 922.632812 100.628906 921.984375 101.191406 C 921.332031 101.757812 920.742188 102.378906 920.214844 103.058594 C 920.214844 103.578125 878.125 157.769531 855.132812 190.265625 C 853.164062 193.375 851.703125 196.703125 850.746094 200.257812 C 849.789062 203.808594 849.378906 207.421875 849.515625 211.097656 C 852.421875 239.191406 857.320312 266.9375 864.207031 294.328125 C 870.519531 320.257812 880.023438 353.878906 890.136719 367.359375 C 900.25 380.84375 900.25 383.78125 900.25 384.648438 C 893.074219 395.96875 881.40625 387.585938 873.371094 376.523438 C 872.871094 375.832031 872.308594 375.199219 871.683594 374.621094 C 871.058594 374.042969 870.386719 373.527344 869.660156 373.082031 C 868.933594 372.636719 868.171875 372.265625 867.375 371.96875 C 866.578125 371.675781 865.757812 371.460938 864.917969 371.324219 C 864.074219 371.191406 863.230469 371.140625 862.378906 371.171875 C 861.527344 371.203125 860.6875 371.320312 859.859375 371.515625 C 859.03125 371.714844 858.230469 371.988281 857.457031 372.34375 C 856.683594 372.699219 855.953125 373.128906 855.261719 373.628906 C 854.574219 374.125 853.9375 374.6875 853.359375 375.3125 C 852.78125 375.9375 852.269531 376.613281 851.824219 377.335938 C 851.378906 378.0625 851.007812 378.824219 850.710938 379.621094 C 850.414062 380.421875 850.199219 381.242188 850.066406 382.082031 C 849.929688 382.921875 849.878906 383.765625 849.910156 384.617188 C 849.945312 385.46875 850.058594 386.308594 850.257812 387.136719 C 850.453125 387.964844 850.730469 388.765625 851.085938 389.539062 C 851.441406 390.3125 851.867188 391.042969 852.367188 391.734375 C 871.035156 417.144531 895.148438 423.109375 913.992188 407.808594 C 937.328125 387.5 922.03125 367.015625 910.878906 352.148438 C 898.78125 335.902344 878.125 248.433594 875.359375 209.453125 C 875.488281 207.816406 875.921875 206.261719 876.652344 204.789062 C 899.730469 172.722656 940.527344 119.65625 940.957031 119.136719 Z M 940.957031 119.136719 " fill-opacity="1" fill-rule="nonzero"/><path fill="#000000" d="M 836.378906 38.496094 C 836.847656 37.789062 837.246094 37.039062 837.570312 36.25 C 837.894531 35.464844 838.136719 34.652344 838.300781 33.816406 C 838.464844 32.980469 838.546875 32.136719 838.542969 31.285156 C 838.539062 30.433594 838.453125 29.589844 838.285156 28.757812 C 838.117188 27.921875 837.871094 27.113281 837.542969 26.328125 C 837.214844 25.539062 836.8125 24.792969 836.335938 24.085938 C 835.863281 23.382812 835.320312 22.726562 834.71875 22.128906 C 834.113281 21.527344 833.457031 20.992188 832.75 20.519531 C 832.039062 20.050781 831.289062 19.652344 830.503906 19.328125 C 829.714844 19.003906 828.902344 18.761719 828.066406 18.597656 C 827.230469 18.433594 826.386719 18.351562 825.535156 18.355469 C 824.683594 18.359375 823.84375 18.441406 823.007812 18.613281 C 822.171875 18.78125 821.363281 19.027344 820.578125 19.355469 C 819.792969 19.683594 819.046875 20.085938 818.339844 20.5625 C 817.632812 21.035156 816.976562 21.578125 816.378906 22.179688 C 815.777344 22.785156 815.242188 23.441406 814.769531 24.148438 L 754.269531 115.679688 C 748.699219 121.296875 742.652344 126.347656 736.125 130.824219 C 729.597656 135.300781 722.710938 139.125 715.464844 142.300781 C 699.867188 151.171875 685.808594 162.03125 673.285156 174.882812 C 672.707031 175.484375 672.191406 176.132812 671.738281 176.832031 C 671.285156 177.53125 670.902344 178.269531 670.589844 179.042969 C 670.28125 179.816406 670.046875 180.609375 669.886719 181.429688 C 669.730469 182.25 669.652344 183.074219 669.652344 183.90625 C 669.65625 184.742188 669.738281 185.566406 669.898438 186.386719 C 670.058594 187.203125 670.296875 188 670.609375 188.769531 C 670.925781 189.542969 671.308594 190.277344 671.765625 190.976562 C 672.222656 191.671875 672.742188 192.320312 673.320312 192.917969 C 673.902344 193.515625 674.535156 194.054688 675.21875 194.527344 C 675.90625 195.003906 676.628906 195.410156 677.390625 195.746094 C 678.15625 196.082031 678.941406 196.34375 679.757812 196.527344 C 680.570312 196.710938 681.390625 196.816406 682.226562 196.839844 C 683.058594 196.867188 683.886719 196.8125 684.710938 196.675781 C 685.53125 196.542969 686.335938 196.332031 687.117188 196.042969 C 687.898438 195.75 688.644531 195.390625 689.355469 194.957031 C 690.070312 194.523438 690.734375 194.027344 691.351562 193.464844 C 701.84375 182.617188 713.601562 173.371094 726.613281 165.722656 C 735.359375 161.738281 743.660156 156.96875 751.507812 151.417969 C 759.355469 145.863281 766.613281 139.628906 773.285156 132.707031 C 773.792969 132.167969 774.253906 131.589844 774.667969 130.976562 Z M 836.378906 38.496094 " fill-opacity="1" fill-rule="nonzero"/><path fill="#000000" d="M 475.363281 112.828125 C 475.363281 113.257812 515.292969 171.425781 538.886719 202.714844 C 541.226562 205.253906 543.863281 207.433594 546.796875 209.253906 C 549.734375 211.074219 552.859375 212.464844 556.175781 213.429688 C 592.300781 222.074219 689.707031 232.53125 717.453125 223.109375 C 732.488281 218.011719 736.121094 218.53125 736.726562 218.703125 C 748.652344 233.914062 721.425781 243.074219 705.003906 245.324219 C 685.644531 248.695312 641.914062 256.210938 657.382812 279.375 C 657.945312 280.015625 658.566406 280.59375 659.246094 281.109375 C 659.925781 281.628906 660.644531 282.074219 661.414062 282.445312 C 662.179688 282.820312 662.972656 283.117188 663.796875 283.335938 C 664.621094 283.550781 665.460938 283.6875 666.3125 283.738281 C 667.164062 283.792969 668.011719 283.761719 668.855469 283.644531 C 669.699219 283.53125 670.523438 283.332031 671.332031 283.054688 C 672.136719 282.777344 672.910156 282.421875 673.644531 281.992188 C 674.382812 281.5625 675.066406 281.066406 675.707031 280.5 C 680.71875 276.089844 696.707031 273.152344 709.585938 270.820312 C 738.023438 267.1875 756.429688 253.535156 761.445312 242.125 C 762.675781 239.894531 763.640625 237.550781 764.335938 235.097656 C 765.035156 232.648438 765.445312 230.148438 765.574219 227.601562 C 765.699219 225.054688 765.539062 222.527344 765.089844 220.019531 C 764.640625 217.507812 763.914062 215.082031 762.914062 212.738281 C 750.8125 184.304688 726.613281 192.515625 708.980469 198.566406 C 689.792969 205.046875 600.253906 197.699219 562.050781 188.28125 C 560.527344 187.640625 559.175781 186.75 557.988281 185.601562 C 534.480469 153.96875 496.710938 99.171875 496.277344 98.21875 C 495.828125 97.453125 495.304688 96.742188 494.707031 96.082031 C 494.113281 95.421875 493.453125 94.832031 492.734375 94.308594 C 492.015625 93.785156 491.253906 93.339844 490.441406 92.972656 C 489.632812 92.605469 488.792969 92.324219 487.925781 92.132812 C 487.058594 91.9375 486.179688 91.835938 485.292969 91.820312 C 484.402344 91.808594 483.523438 91.886719 482.648438 92.054688 C 481.777344 92.222656 480.929688 92.476562 480.109375 92.816406 C 479.289062 93.160156 478.511719 93.582031 477.777344 94.085938 C 477.042969 94.585938 476.371094 95.15625 475.753906 95.796875 C 475.136719 96.4375 474.59375 97.136719 474.121094 97.890625 C 473.648438 98.640625 473.253906 99.433594 472.945312 100.269531 C 472.636719 101.101562 472.414062 101.957031 472.28125 102.835938 C 472.148438 103.714844 472.105469 104.597656 472.152344 105.488281 C 472.203125 106.375 472.339844 107.246094 472.566406 108.105469 C 472.796875 108.964844 473.109375 109.792969 473.507812 110.589844 C 473.90625 111.382812 474.378906 112.128906 474.929688 112.828125 Z M 475.363281 112.828125 " fill-opacity="1" fill-rule="nonzero"/><path fill="#000000" d="M 465.25 252.496094 L 396.105469 165.375 C 395.578125 164.707031 394.992188 164.09375 394.34375 163.542969 C 393.695312 162.988281 393 162.503906 392.253906 162.089844 C 391.511719 161.671875 390.734375 161.332031 389.921875 161.070312 C 389.113281 160.804688 388.285156 160.625 387.4375 160.523438 C 386.589844 160.425781 385.742188 160.410156 384.894531 160.476562 C 384.042969 160.542969 383.207031 160.691406 382.386719 160.921875 C 381.566406 161.15625 380.777344 161.464844 380.019531 161.851562 C 379.257812 162.238281 378.546875 162.695312 377.875 163.222656 C 377.207031 163.75 376.59375 164.335938 376.042969 164.984375 C 375.488281 165.632812 375.003906 166.328125 374.585938 167.074219 C 374.167969 167.816406 373.828125 168.59375 373.566406 169.402344 C 373.300781 170.214844 373.121094 171.042969 373.019531 171.886719 C 372.917969 172.734375 372.902344 173.582031 372.96875 174.433594 C 373.035156 175.28125 373.183594 176.117188 373.414062 176.9375 C 373.644531 177.757812 373.953125 178.546875 374.339844 179.308594 C 374.726562 180.066406 375.183594 180.78125 375.710938 181.453125 L 443.988281 267.882812 C 447.605469 274.902344 450.539062 282.199219 452.789062 289.769531 C 455.042969 297.339844 456.574219 305.054688 457.386719 312.910156 C 460.300781 328.265625 465.253906 342.929688 472.25 356.902344 C 472.777344 358.019531 473.449219 359.039062 474.265625 359.964844 C 475.082031 360.890625 476.007812 361.6875 477.046875 362.351562 C 478.085938 363.015625 479.199219 363.527344 480.378906 363.878906 C 481.5625 364.230469 482.773438 364.410156 484.003906 364.421875 C 484.546875 364.421875 485.085938 364.386719 485.625 364.320312 C 486.164062 364.25 486.691406 364.148438 487.21875 364.015625 C 487.742188 363.878906 488.257812 363.714844 488.761719 363.515625 C 489.265625 363.316406 489.753906 363.085938 490.230469 362.824219 C 490.703125 362.5625 491.160156 362.273438 491.601562 361.957031 C 492.039062 361.640625 492.457031 361.296875 492.851562 360.925781 C 493.246094 360.554688 493.617188 360.160156 493.964844 359.746094 C 494.3125 359.328125 494.628906 358.890625 494.921875 358.433594 C 495.214844 357.976562 495.476562 357.503906 495.707031 357.015625 C 495.941406 356.527344 496.140625 356.023438 496.308594 355.507812 C 496.480469 354.996094 496.617188 354.472656 496.71875 353.941406 C 496.824219 353.40625 496.894531 352.871094 496.929688 352.332031 C 496.964844 351.789062 496.96875 351.25 496.9375 350.710938 C 496.90625 350.167969 496.839844 349.632812 496.742188 349.097656 C 496.644531 348.566406 496.511719 348.042969 496.347656 347.523438 C 496.183594 347.007812 495.988281 346.503906 495.761719 346.011719 C 489.949219 334.402344 485.714844 322.246094 483.054688 309.539062 C 482.113281 299.515625 480.144531 289.695312 477.144531 280.085938 C 474.144531 270.472656 470.179688 261.277344 465.25 252.496094 Z M 465.25 252.496094 " fill-opacity="1" fill-rule="nonzero"/><path fill="#000000" d="M 455.917969 500.636719 C 459.058594 499.191406 461.949219 497.355469 464.589844 495.128906 C 467.230469 492.898438 469.527344 490.355469 471.472656 487.496094 C 491.09375 455.949219 530.851562 366.496094 530.417969 337.109375 C 529.582031 330.410156 530.1875 323.839844 532.234375 317.40625 C 548.570312 311.183594 550.730469 332.960938 548.570312 350.160156 C 545.371094 374.277344 539.925781 402.019531 556 414.8125 C 568.707031 425.269531 586.339844 419.390625 592.128906 417.488281 L 606.042969 412.738281 C 606.851562 412.453125 607.621094 412.09375 608.355469 411.65625 C 609.089844 411.222656 609.777344 410.71875 610.410156 410.148438 C 611.046875 409.578125 611.621094 408.949219 612.132812 408.265625 C 612.648438 407.582031 613.085938 406.855469 613.457031 406.085938 C 613.824219 405.316406 614.117188 404.515625 614.328125 403.6875 C 614.539062 402.859375 614.667969 402.019531 614.714844 401.167969 C 614.761719 400.316406 614.722656 399.464844 614.601562 398.621094 C 614.480469 397.773438 614.277344 396.949219 613.996094 396.140625 C 613.710938 395.335938 613.351562 394.566406 612.917969 393.832031 C 612.480469 393.097656 611.976562 392.410156 611.40625 391.773438 C 610.835938 391.136719 610.210938 390.5625 609.527344 390.050781 C 608.84375 389.539062 608.117188 389.097656 607.34375 388.730469 C 606.574219 388.359375 605.777344 388.070312 604.949219 387.859375 C 604.121094 387.644531 603.28125 387.515625 602.425781 387.472656 C 601.574219 387.425781 600.722656 387.460938 599.878906 387.582031 C 599.03125 387.703125 598.207031 387.90625 597.402344 388.191406 L 583.484375 392.859375 C 579.882812 394.507812 576.109375 395.144531 572.164062 394.757812 C 568.445312 389.140625 572.597656 364.941406 573.980469 353.53125 C 579.078125 314.984375 563.003906 288.882812 534.480469 290.265625 C 503.625 292.945312 503.972656 318.527344 504.316406 337.195312 C 504.316406 357.421875 469.746094 440.308594 449.175781 473.410156 C 448.097656 474.660156 446.832031 475.667969 445.371094 476.433594 C 408.035156 489.054688 343.902344 507.894531 343.210938 508.066406 C 342.394531 508.308594 341.609375 508.628906 340.855469 509.023438 C 340.101562 509.417969 339.390625 509.886719 338.730469 510.421875 C 338.066406 510.957031 337.460938 511.550781 336.917969 512.207031 C 336.371094 512.859375 335.894531 513.5625 335.488281 514.3125 C 335.082031 515.058594 334.75 515.839844 334.496094 516.652344 C 334.242188 517.46875 334.070312 518.296875 333.980469 519.144531 C 333.890625 519.992188 333.886719 520.839844 333.960938 521.6875 C 334.039062 522.535156 334.199219 523.371094 334.441406 524.1875 C 334.679688 525.003906 335 525.789062 335.394531 526.542969 C 335.792969 527.300781 336.257812 528.007812 336.792969 528.671875 C 337.328125 529.332031 337.921875 529.9375 338.578125 530.484375 C 339.234375 531.027344 339.933594 531.503906 340.683594 531.910156 C 341.429688 532.320312 342.210938 532.648438 343.023438 532.902344 C 343.839844 533.15625 344.667969 533.328125 345.515625 533.417969 C 346.363281 533.507812 347.210938 533.515625 348.058594 533.4375 C 348.910156 533.359375 349.742188 533.199219 350.558594 532.960938 C 350.558594 532.960938 418.925781 513.082031 455.917969 500.636719 Z M 455.917969 500.636719 " fill-opacity="1" fill-rule="nonzero"/><path fill="#000000" d="M 560.582031 586.371094 C 555.023438 586.621094 549.492188 586.335938 543.988281 585.507812 C 534.511719 583.527344 524.933594 582.457031 515.25 582.296875 C 505.570312 582.136719 495.960938 582.890625 486.425781 584.558594 C 485.691406 584.679688 484.972656 584.851562 484.265625 585.078125 L 380.550781 623.796875 C 379.835938 624.140625 379.160156 624.546875 378.519531 625.015625 C 377.878906 625.484375 377.289062 626.007812 376.746094 626.585938 C 376.203125 627.160156 375.714844 627.78125 375.285156 628.449219 C 374.855469 629.117188 374.492188 629.816406 374.191406 630.546875 C 373.890625 631.28125 373.65625 632.035156 373.496094 632.8125 C 373.332031 633.585938 373.242188 634.371094 373.222656 635.164062 C 373.203125 635.957031 373.257812 636.742188 373.382812 637.527344 C 373.507812 638.308594 373.703125 639.074219 373.96875 639.820312 C 374.234375 640.566406 374.566406 641.28125 374.964844 641.96875 C 375.359375 642.65625 375.816406 643.296875 376.332031 643.902344 C 376.847656 644.503906 377.414062 645.054688 378.03125 645.550781 C 378.644531 646.050781 379.300781 646.488281 380 646.867188 C 380.695312 647.246094 381.421875 647.558594 382.175781 647.800781 C 382.925781 648.046875 383.699219 648.222656 384.484375 648.324219 C 385.269531 648.429688 386.058594 648.460938 386.847656 648.421875 C 387.640625 648.378906 388.421875 648.265625 389.191406 648.082031 L 492.304688 609.796875 C 500.109375 608.519531 507.964844 607.984375 515.867188 608.1875 C 523.773438 608.390625 531.589844 609.332031 539.320312 611.003906 C 546.480469 612.148438 553.683594 612.582031 560.929688 612.300781 C 561.777344 612.289062 562.621094 612.195312 563.453125 612.015625 C 564.285156 611.839844 565.089844 611.582031 565.871094 611.246094 C 566.652344 610.90625 567.394531 610.496094 568.09375 610.015625 C 568.792969 609.53125 569.441406 608.988281 570.035156 608.375 C 570.625 607.765625 571.15625 607.105469 571.617188 606.390625 C 572.082031 605.675781 572.46875 604.925781 572.785156 604.136719 C 573.097656 603.34375 573.332031 602.53125 573.488281 601.695312 C 573.644531 600.859375 573.714844 600.015625 573.703125 599.164062 C 573.691406 598.3125 573.597656 597.472656 573.421875 596.640625 C 573.242188 595.808594 572.988281 595.003906 572.652344 594.21875 C 572.316406 593.4375 571.90625 592.699219 571.425781 591.996094 C 570.945312 591.296875 570.398438 590.648438 569.789062 590.054688 C 569.179688 589.460938 568.519531 588.929688 567.804688 588.46875 C 567.09375 588.003906 566.339844 587.613281 565.550781 587.296875 C 564.761719 586.984375 563.949219 586.746094 563.113281 586.589844 C 562.277344 586.4375 561.433594 586.363281 560.582031 586.371094 Z M 560.582031 586.371094 " fill-opacity="1" fill-rule="nonzero"/><g clip-path="url(#a9d207b944)"><path fill="#000000" d="M 834.21875 327.777344 C 833.597656 327.140625 832.945312 326.539062 832.261719 325.972656 C 831.578125 325.40625 830.867188 324.875 830.132812 324.378906 C 829.394531 323.886719 828.632812 323.429688 827.847656 323.015625 C 827.066406 322.597656 826.261719 322.222656 825.4375 321.886719 C 824.617188 321.554688 823.777344 321.265625 822.925781 321.015625 C 822.074219 320.769531 821.210938 320.566406 820.335938 320.40625 C 819.464844 320.246094 818.582031 320.132812 817.699219 320.0625 C 816.8125 319.996094 815.925781 319.972656 815.039062 319.992188 C 814.152344 320.015625 813.265625 320.082031 812.386719 320.195312 C 811.507812 320.308594 810.632812 320.46875 809.769531 320.671875 C 808.90625 320.875 808.054688 321.121094 807.214844 321.410156 C 806.375 321.699219 805.554688 322.03125 804.746094 322.40625 C 803.941406 322.78125 803.160156 323.195312 802.398438 323.652344 C 801.632812 324.105469 800.898438 324.601562 800.1875 325.128906 C 799.472656 325.660156 798.792969 326.226562 798.136719 326.828125 C 797.484375 327.429688 796.863281 328.0625 796.273438 328.726562 C 794.890625 309.453125 785.472656 290.09375 764.210938 290.351562 C 762.816406 290.359375 761.429688 290.46875 760.050781 290.675781 C 758.671875 290.882812 757.316406 291.1875 755.980469 291.585938 C 754.648438 291.988281 753.347656 292.484375 752.085938 293.070312 C 750.820312 293.660156 749.605469 294.335938 748.4375 295.097656 C 747.273438 295.859375 746.164062 296.703125 745.121094 297.625 C 744.074219 298.546875 743.097656 299.535156 742.195312 300.597656 C 741.292969 301.660156 740.46875 302.78125 739.726562 303.957031 C 738.984375 305.136719 738.328125 306.363281 737.761719 307.636719 C 735.082031 290.351562 723.761719 276.695312 705.785156 276.957031 C 684.003906 276.957031 676.3125 297.785156 676.3125 318.875 C 675.664062 317.371094 674.902344 315.925781 674.023438 314.542969 C 673.148438 313.15625 672.167969 311.851562 671.082031 310.625 C 669.996094 309.398438 668.824219 308.261719 667.558594 307.222656 C 666.292969 306.183594 664.953125 305.25 663.539062 304.421875 C 662.125 303.59375 660.652344 302.886719 659.125 302.292969 C 657.597656 301.699219 656.035156 301.230469 654.433594 300.886719 C 652.828125 300.546875 651.210938 300.332031 649.574219 300.246094 C 647.9375 300.160156 646.308594 300.203125 644.679688 300.378906 C 642.808594 300.503906 640.972656 300.824219 639.167969 301.332031 C 637.367188 301.84375 635.632812 302.53125 633.976562 303.402344 C 632.316406 304.273438 630.765625 305.304688 629.320312 306.5 C 627.875 307.695312 626.570312 309.023438 625.402344 310.492188 C 613.824219 324.492188 616.761719 348 618.835938 368.742188 C 619.960938 380.152344 621.082031 388.621094 623.15625 403.316406 C 625.230469 418.007812 627.824219 436.332031 629.464844 453.875 C 631.628906 476.347656 631.539062 496.488281 631.714844 515.328125 C 632.164062 519.285156 631.589844 523.089844 629.984375 526.738281 C 623.503906 528.550781 601.808594 517.230469 591.351562 512.304688 C 556.347656 495.535156 526.441406 502.710938 519.007812 530.28125 C 512.007812 560.445312 536.296875 567.964844 554.273438 573.496094 C 573.632812 579.546875 641.738281 638.058594 666.632812 668.046875 C 667.460938 669.476562 668.007812 671 668.273438 672.628906 C 668.273438 711.953125 666.890625 778.851562 666.804688 779.542969 C 666.78125 780.394531 666.84375 781.238281 666.988281 782.078125 C 667.132812 782.914062 667.355469 783.734375 667.660156 784.527344 C 667.964844 785.320312 668.347656 786.078125 668.800781 786.796875 C 669.253906 787.519531 669.773438 788.1875 670.359375 788.804688 C 670.945312 789.421875 671.585938 789.976562 672.28125 790.46875 C 672.976562 790.960938 673.710938 791.378906 674.488281 791.722656 C 675.265625 792.070312 676.070312 792.339844 676.902344 792.527344 C 677.730469 792.714844 678.570312 792.820312 679.421875 792.84375 C 680.273438 792.867188 681.117188 792.804688 681.957031 792.660156 C 682.796875 792.519531 683.613281 792.292969 684.40625 791.988281 C 685.203125 791.683594 685.960938 791.304688 686.679688 790.851562 C 687.402344 790.398438 688.070312 789.878906 688.6875 789.292969 C 689.304688 788.707031 689.859375 788.066406 690.351562 787.375 C 690.84375 786.679688 691.261719 785.941406 691.609375 785.164062 C 691.957031 784.386719 692.226562 783.585938 692.414062 782.753906 C 692.601562 781.925781 692.710938 781.085938 692.734375 780.234375 C 692.734375 779.628906 694.808594 709.449219 694.117188 670.210938 C 693.792969 666.796875 693.011719 663.488281 691.78125 660.289062 C 690.546875 657.089844 688.90625 654.117188 686.855469 651.367188 C 662.914062 622.847656 590.054688 557.417969 562.136719 548.777344 C 546.925781 544.023438 544.246094 541.515625 543.902344 540.910156 C 543.722656 539.289062 543.894531 537.703125 544.417969 536.15625 C 547.964844 525.007812 566.546875 529.15625 580.375 536.15625 C 602.414062 546.703125 627.390625 560.183594 644.160156 549.035156 C 660.925781 537.886719 657.554688 519.996094 657.816406 510.230469 C 657.828125 473.269531 654.945312 436.535156 649.171875 400.03125 C 647.097656 385.855469 646.0625 377.820312 644.9375 366.667969 C 643.8125 355.519531 641.132812 331.148438 645.714844 327.777344 C 654.359375 321.640625 658.851562 343.59375 662.394531 371.683594 C 671.730469 449.46875 676.398438 456.816406 683.3125 461.742188 C 684.140625 462.351562 685.023438 462.867188 685.960938 463.292969 C 686.898438 463.714844 687.871094 464.03125 688.875 464.25 C 689.882812 464.464844 690.898438 464.574219 691.929688 464.574219 C 692.957031 464.574219 693.972656 464.464844 694.980469 464.25 C 706.90625 461.65625 706.648438 449.125 706.476562 439.011719 C 706.476562 431.320312 705.785156 421.726562 705.179688 409.625 C 703.363281 382.746094 702.152344 334.171875 702.585938 320.429688 C 702.585938 308.15625 704.660156 304.785156 705.871094 304.007812 C 707.078125 303.230469 712.699219 304.007812 713.648438 322.851562 C 713.648438 327.429688 718.660156 409.277344 719.785156 432.789062 C 719.761719 437.390625 720.078125 441.972656 720.734375 446.53125 C 720.851562 447.929688 721.160156 449.289062 721.652344 450.605469 C 722.148438 451.921875 722.8125 453.144531 723.644531 454.277344 C 724.476562 455.410156 725.449219 456.40625 726.558594 457.269531 C 727.667969 458.132812 728.875 458.828125 730.179688 459.355469 C 731.480469 459.886719 732.832031 460.226562 734.226562 460.378906 C 735.625 460.535156 737.015625 460.496094 738.402344 460.261719 C 739.789062 460.03125 741.117188 459.613281 742.390625 459.015625 C 743.660156 458.414062 744.828125 457.652344 745.886719 456.730469 C 751.851562 451.457031 753.664062 444.28125 756 400.808594 C 757.121094 379.203125 757.296875 363.210938 757.382812 351.632812 C 757.382812 346.53125 757.382812 342.125 757.382812 338.667969 C 757.382812 326.480469 761.53125 317.058594 764.382812 317.058594 C 767.234375 317.058594 770.171875 317.058594 771.296875 340.394531 C 772.507812 366.324219 774.582031 411.265625 774.753906 423.714844 C 774.753906 450.332031 775.878906 457.59375 782.101562 462.953125 C 782.898438 463.632812 783.753906 464.222656 784.675781 464.71875 C 785.601562 465.214844 786.5625 465.609375 787.570312 465.898438 C 788.574219 466.191406 789.601562 466.371094 790.648438 466.441406 C 791.691406 466.515625 792.730469 466.472656 793.769531 466.324219 C 805.695312 464.59375 806.992188 452.839844 807.597656 447.828125 C 808.203125 442.8125 809.238281 416.453125 809.671875 396.917969 C 810.105469 382.3125 809.671875 356.382812 815.894531 346.789062 C 817.429688 350.4375 818.546875 354.207031 819.25 358.097656 C 819.949219 361.992188 820.214844 365.914062 820.042969 369.867188 C 820.90625 386.117188 820.042969 409.367188 819.523438 439.011719 C 818.660156 470.472656 821.253906 505.476562 819.523438 535.640625 C 819.0625 548.980469 817.453125 562.183594 814.695312 575.246094 C 811.9375 588.308594 808.074219 601.035156 803.101562 613.425781 C 798.292969 621.828125 794.308594 630.609375 791.15625 639.765625 C 788 648.921875 785.730469 658.292969 784.347656 667.875 C 784.304688 668.625 784.304688 669.375 784.347656 670.125 L 788.929688 781.097656 C 788.960938 781.949219 789.078125 782.789062 789.28125 783.617188 C 789.480469 784.445312 789.757812 785.246094 790.113281 786.019531 C 790.472656 786.792969 790.902344 787.523438 791.402344 788.210938 C 791.902344 788.898438 792.46875 789.53125 793.09375 790.109375 C 793.71875 790.6875 794.394531 791.199219 795.121094 791.644531 C 795.847656 792.089844 796.613281 792.457031 797.410156 792.75 C 798.210938 793.046875 799.03125 793.257812 799.871094 793.390625 C 800.714844 793.523438 801.558594 793.574219 802.410156 793.539062 C 803.261719 793.503906 804.101562 793.390625 804.929688 793.191406 C 805.757812 792.992188 806.558594 792.710938 807.332031 792.355469 C 808.105469 791.996094 808.835938 791.570312 809.523438 791.066406 C 810.214844 790.566406 810.847656 790.003906 811.425781 789.378906 C 812.003906 788.75 812.515625 788.074219 812.957031 787.347656 C 813.402344 786.621094 813.773438 785.859375 814.066406 785.0625 C 814.363281 784.261719 814.574219 783.441406 814.707031 782.601562 C 814.839844 781.757812 814.890625 780.914062 814.855469 780.0625 L 810.277344 670.121094 C 811.308594 662.214844 813.074219 654.476562 815.570312 646.902344 C 818.070312 639.328125 821.261719 632.058594 825.140625 625.09375 C 832.921875 611.4375 842.429688 578.421875 844.933594 536.847656 C 847.007812 505.214844 844.417969 471.078125 844.933594 439.011719 C 847.007812 372.71875 847.785156 342.382812 834.21875 327.777344 Z M 834.21875 327.777344 " fill-opacity="1" fill-rule="nonzero"/></g></svg>