<svg xmlns="http://www.w3.org/2000/svg" xmlns:xlink="http://www.w3.org/1999/xlink" width="1920" zoomAndPan="magnify" viewBox="0 0 1440 809.999993" height="1080" preserveAspectRatio="xMidYMid meet" version="1.0"><defs><clipPath id="90ee67989a"><path d="M 517 276 L 846 276 L 846 793.628906 L 517 793.628906 Z M 517 276 " clip-rule="nonzero"/></clipPath></defs><path fill="#c6a2ba" d="M 1060.667969 517.746094 C 1060.148438 517.746094 993.96875 493.902344 956.472656 482.496094 C 953.089844 481.785156 949.671875 481.546875 946.222656 481.785156 C 942.773438 482.019531 939.421875 482.714844 936.167969 483.878906 C 907.761719 496.582031 880.460938 511.328125 854.261719 528.113281 C 853.53125 528.574219 852.855469 529.097656 852.234375 529.6875 C 851.609375 530.277344 851.046875 530.921875 850.550781 531.625 C 850.050781 532.324219 849.628906 533.066406 849.277344 533.851562 C 848.925781 534.636719 848.65625 535.445312 848.460938 536.285156 C 848.269531 537.121094 848.164062 537.96875 848.136719 538.828125 C 848.113281 539.6875 848.171875 540.542969 848.316406 541.386719 C 848.457031 542.234375 848.683594 543.0625 848.988281 543.863281 C 849.292969 544.667969 849.675781 545.433594 850.132812 546.160156 C 850.585938 546.890625 851.109375 547.566406 851.699219 548.191406 C 852.289062 548.816406 852.933594 549.378906 853.632812 549.878906 C 854.332031 550.375 855.074219 550.800781 855.859375 551.152344 C 856.644531 551.507812 857.453125 551.78125 858.289062 551.972656 C 859.128906 552.164062 859.976562 552.273438 860.835938 552.300781 C 861.695312 552.328125 862.546875 552.269531 863.394531 552.128906 C 864.242188 551.984375 865.066406 551.761719 865.871094 551.457031 C 866.675781 551.15625 867.441406 550.773438 868.171875 550.320312 C 893.007812 534.289062 918.925781 520.265625 945.929688 508.242188 C 947.542969 507.921875 949.15625 507.921875 950.769531 508.242188 C 988.351562 520.078125 1051.335938 542.804688 1051.941406 542.804688 C 1052.746094 543.085938 1053.566406 543.289062 1054.410156 543.414062 C 1055.253906 543.535156 1056.101562 543.574219 1056.953125 543.527344 C 1057.800781 543.484375 1058.640625 543.355469 1059.464844 543.144531 C 1060.289062 542.9375 1061.085938 542.648438 1061.855469 542.28125 C 1062.625 541.914062 1063.351562 541.476562 1064.03125 540.964844 C 1064.714844 540.457031 1065.339844 539.882812 1065.910156 539.25 C 1066.480469 538.617188 1066.980469 537.933594 1067.417969 537.203125 C 1067.851562 536.46875 1068.210938 535.703125 1068.496094 534.898438 C 1068.777344 534.097656 1068.980469 533.273438 1069.101562 532.429688 C 1069.226562 531.589844 1069.261719 530.742188 1069.21875 529.890625 C 1069.171875 529.039062 1069.042969 528.203125 1068.835938 527.375 C 1068.625 526.550781 1068.335938 525.753906 1067.96875 524.988281 C 1067.601562 524.21875 1067.160156 523.492188 1066.652344 522.8125 C 1066.140625 522.128906 1065.570312 521.503906 1064.933594 520.933594 C 1064.300781 520.363281 1063.617188 519.863281 1062.886719 519.429688 C 1062.152344 518.992188 1061.386719 518.636719 1060.582031 518.351562 Z M 1060.667969 517.746094 " fill-opacity="1" fill-rule="nonzero"/><path fill="#c6a2ba" d="M 1099.03125 390.308594 L 993.191406 360.671875 C 986.117188 357.136719 979.441406 352.964844 973.164062 348.152344 C 966.886719 343.34375 961.121094 337.984375 955.867188 332.074219 C 947.425781 324 938.152344 317.027344 928.046875 311.167969 C 927.320312 310.761719 926.5625 310.429688 925.773438 310.167969 C 924.984375 309.910156 924.179688 309.726562 923.355469 309.621094 C 922.53125 309.519531 921.707031 309.492188 920.878906 309.546875 C 920.050781 309.601562 919.234375 309.734375 918.429688 309.945312 C 917.625 310.15625 916.851562 310.441406 916.101562 310.800781 C 915.355469 311.164062 914.648438 311.589844 913.980469 312.085938 C 913.316406 312.582031 912.703125 313.136719 912.144531 313.75 C 911.585938 314.363281 911.089844 315.027344 910.65625 315.734375 C 910.226562 316.445312 909.863281 317.1875 909.574219 317.96875 C 909.285156 318.746094 909.074219 319.542969 908.9375 320.363281 C 908.800781 321.183594 908.746094 322.007812 908.769531 322.835938 C 908.792969 323.667969 908.894531 324.488281 909.074219 325.296875 C 909.253906 326.109375 909.511719 326.894531 909.84375 327.65625 C 910.175781 328.417969 910.574219 329.140625 911.046875 329.824219 C 911.515625 330.507812 912.046875 331.140625 912.640625 331.722656 C 913.234375 332.304688 913.875 332.824219 914.566406 333.285156 C 922.757812 337.972656 930.332031 343.5 937.289062 349.875 C 943.785156 357.039062 950.894531 363.53125 958.625 369.34375 C 966.355469 375.15625 974.566406 380.183594 983.253906 384.433594 L 985.328125 385.210938 L 1092.289062 415.191406 C 1093.472656 415.359375 1094.652344 415.359375 1095.832031 415.191406 C 1096.539062 415.101562 1097.234375 414.953125 1097.917969 414.75 C 1098.601562 414.546875 1099.261719 414.285156 1099.902344 413.972656 C 1100.542969 413.660156 1101.152344 413.296875 1101.730469 412.882812 C 1102.3125 412.46875 1102.855469 412.007812 1103.359375 411.503906 C 1103.863281 411 1104.320312 410.460938 1104.738281 409.878906 C 1105.152344 409.300781 1105.515625 408.691406 1105.832031 408.050781 C 1106.144531 407.414062 1106.40625 406.753906 1106.609375 406.070312 C 1106.816406 405.386719 1106.964844 404.691406 1107.054688 403.984375 C 1107.144531 403.277344 1107.175781 402.570312 1107.152344 401.859375 C 1107.125 401.144531 1107.039062 400.441406 1106.898438 399.742188 C 1106.753906 399.042969 1106.558594 398.363281 1106.300781 397.695312 C 1106.046875 397.03125 1105.738281 396.390625 1105.378906 395.777344 C 1105.019531 395.160156 1104.609375 394.582031 1104.152344 394.035156 C 1103.695312 393.484375 1103.199219 392.980469 1102.660156 392.515625 C 1102.117188 392.050781 1101.542969 391.632812 1100.933594 391.261719 C 1100.328125 390.890625 1099.691406 390.574219 1099.03125 390.308594 Z M 1099.03125 390.308594 " fill-opacity="1" fill-rule="nonzero"/><path fill="#c6a2ba" d="M 940.746094 119.101562 C 941.273438 118.417969 941.730469 117.695312 942.113281 116.921875 C 942.496094 116.152344 942.800781 115.351562 943.027344 114.523438 C 943.253906 113.691406 943.398438 112.847656 943.457031 111.988281 C 943.519531 111.128906 943.496094 110.273438 943.386719 109.417969 C 943.277344 108.5625 943.085938 107.730469 942.8125 106.914062 C 942.539062 106.09375 942.191406 105.3125 941.765625 104.566406 C 941.335938 103.816406 940.839844 103.121094 940.277344 102.46875 C 939.710938 101.820312 939.089844 101.230469 938.410156 100.703125 C 937.726562 100.175781 937.003906 99.71875 936.234375 99.335938 C 935.460938 98.949219 934.660156 98.644531 933.832031 98.417969 C 933 98.191406 932.15625 98.046875 931.296875 97.988281 C 930.4375 97.925781 929.582031 97.949219 928.726562 98.058594 C 927.875 98.167969 927.039062 98.355469 926.222656 98.628906 C 925.40625 98.902344 924.621094 99.25 923.875 99.675781 C 923.128906 100.105469 922.429688 100.597656 921.777344 101.164062 C 921.128906 101.726562 920.539062 102.351562 920.011719 103.03125 C 920.011719 103.546875 877.933594 157.722656 854.953125 190.207031 C 852.984375 193.3125 851.523438 196.640625 850.566406 200.191406 C 849.609375 203.742188 849.199219 207.355469 849.335938 211.03125 C 852.242188 239.113281 857.136719 266.847656 864.023438 294.230469 C 870.332031 320.152344 879.835938 353.761719 889.945312 367.238281 C 900.050781 380.71875 900.050781 383.65625 900.050781 384.519531 C 892.882812 395.835938 881.21875 387.457031 873.183594 376.398438 C 872.683594 375.707031 872.121094 375.074219 871.496094 374.496094 C 870.871094 373.917969 870.199219 373.40625 869.472656 372.960938 C 868.75 372.511719 867.988281 372.144531 867.1875 371.847656 C 866.390625 371.550781 865.570312 371.335938 864.730469 371.203125 C 863.890625 371.066406 863.046875 371.015625 862.195312 371.046875 C 861.34375 371.082031 860.503906 371.195312 859.675781 371.394531 C 858.847656 371.589844 858.046875 371.867188 857.273438 372.222656 C 856.5 372.578125 855.769531 373.003906 855.082031 373.503906 C 854.390625 374.003906 853.757812 374.5625 853.179688 375.1875 C 852.601562 375.8125 852.089844 376.488281 851.644531 377.210938 C 851.195312 377.9375 850.828125 378.699219 850.53125 379.496094 C 850.234375 380.292969 850.019531 381.113281 849.886719 381.953125 C 849.75 382.792969 849.699219 383.640625 849.730469 384.492188 C 849.765625 385.339844 849.878906 386.179688 850.078125 387.007812 C 850.273438 387.835938 850.550781 388.636719 850.90625 389.410156 C 851.261719 390.183594 851.6875 390.914062 852.1875 391.605469 C 870.847656 417.003906 894.953125 422.96875 913.789062 407.675781 C 937.117188 387.371094 921.824219 366.894531 910.679688 352.03125 C 898.582031 335.789062 877.933594 248.355469 875.167969 209.386719 C 875.300781 207.75 875.734375 206.195312 876.464844 204.722656 C 899.535156 172.667969 940.3125 119.617188 940.746094 119.101562 Z M 940.746094 119.101562 " fill-opacity="1" fill-rule="nonzero"/><path fill="#c6a2ba" d="M 836.203125 38.488281 C 836.675781 37.78125 837.070312 37.03125 837.394531 36.246094 C 837.71875 35.457031 837.960938 34.644531 838.125 33.8125 C 838.289062 32.976562 838.371094 32.132812 838.367188 31.28125 C 838.363281 30.429688 838.277344 29.585938 838.109375 28.753906 C 837.941406 27.917969 837.695312 27.109375 837.367188 26.324219 C 837.039062 25.539062 836.636719 24.792969 836.160156 24.085938 C 835.6875 23.378906 835.148438 22.726562 834.542969 22.125 C 833.941406 21.523438 833.285156 20.988281 832.574219 20.519531 C 831.863281 20.046875 831.117188 19.652344 830.328125 19.328125 C 829.542969 19.003906 828.730469 18.761719 827.894531 18.597656 C 827.058594 18.433594 826.21875 18.351562 825.367188 18.355469 C 824.515625 18.355469 823.671875 18.441406 822.835938 18.609375 C 822.003906 18.78125 821.191406 19.027344 820.40625 19.355469 C 819.621094 19.683594 818.875 20.085938 818.167969 20.558594 C 817.464844 21.035156 816.808594 21.574219 816.210938 22.179688 C 815.609375 22.78125 815.074219 23.4375 814.601562 24.148438 L 754.125 115.644531 C 748.554688 121.261719 742.507812 126.308594 735.984375 130.785156 C 729.460938 135.257812 722.578125 139.082031 715.332031 142.253906 C 699.738281 151.125 685.683594 161.980469 673.167969 174.828125 C 672.589844 175.429688 672.074219 176.078125 671.621094 176.777344 C 671.167969 177.476562 670.785156 178.210938 670.472656 178.984375 C 670.164062 179.757812 669.929688 180.554688 669.769531 181.371094 C 669.613281 182.191406 669.535156 183.015625 669.535156 183.851562 C 669.539062 184.683594 669.621094 185.507812 669.78125 186.328125 C 669.941406 187.144531 670.179688 187.9375 670.492188 188.710938 C 670.808594 189.484375 671.191406 190.21875 671.648438 190.914062 C 672.105469 191.613281 672.621094 192.261719 673.203125 192.859375 C 673.785156 193.453125 674.417969 193.992188 675.101562 194.46875 C 675.785156 194.941406 676.507812 195.347656 677.273438 195.683594 C 678.035156 196.019531 678.824219 196.28125 679.636719 196.464844 C 680.449219 196.648438 681.269531 196.753906 682.105469 196.777344 C 682.9375 196.804688 683.765625 196.75 684.585938 196.613281 C 685.410156 196.480469 686.210938 196.269531 686.992188 195.980469 C 687.773438 195.691406 688.519531 195.328125 689.234375 194.894531 C 689.945312 194.460938 690.609375 193.964844 691.226562 193.402344 C 701.71875 182.558594 713.46875 173.316406 726.476562 165.667969 C 735.222656 161.6875 743.515625 156.917969 751.363281 151.371094 C 759.207031 145.820312 766.464844 139.585938 773.132812 132.664062 C 773.640625 132.128906 774.101562 131.550781 774.515625 130.9375 Z M 836.203125 38.488281 " fill-opacity="1" fill-rule="nonzero"/><path fill="#c6a2ba" d="M 475.3125 112.792969 C 475.3125 113.226562 515.230469 171.371094 538.816406 202.648438 C 541.152344 205.1875 543.789062 207.367188 546.722656 209.1875 C 549.65625 211.007812 552.78125 212.398438 556.097656 213.363281 C 592.210938 222.003906 689.582031 232.457031 717.316406 223.039062 C 732.351562 217.941406 735.980469 218.460938 736.585938 218.632812 C 748.507812 233.839844 721.292969 242.996094 704.875 245.242188 C 685.523438 248.613281 641.804688 256.128906 657.269531 279.285156 C 657.832031 279.925781 658.453125 280.5 659.132812 281.019531 C 659.808594 281.535156 660.53125 281.980469 661.296875 282.355469 C 662.0625 282.730469 662.859375 283.023438 663.683594 283.242188 C 664.507812 283.460938 665.34375 283.59375 666.195312 283.648438 C 667.046875 283.699219 667.894531 283.667969 668.738281 283.550781 C 669.582031 283.4375 670.40625 283.242188 671.214844 282.960938 C 672.019531 282.683594 672.789062 282.332031 673.527344 281.902344 C 674.261719 281.472656 674.949219 280.972656 675.585938 280.40625 C 680.597656 276 696.582031 273.0625 709.457031 270.730469 C 737.878906 267.101562 756.285156 253.453125 761.292969 242.046875 C 762.527344 239.816406 763.488281 237.472656 764.1875 235.023438 C 764.882812 232.570312 765.296875 230.074219 765.421875 227.527344 C 765.550781 224.984375 765.390625 222.457031 764.941406 219.949219 C 764.492188 217.441406 763.765625 215.015625 762.761719 212.671875 C 750.667969 184.246094 726.476562 192.453125 708.851562 198.5 C 689.667969 204.980469 600.160156 197.636719 561.972656 188.21875 C 560.449219 187.582031 559.097656 186.6875 557.910156 185.542969 C 534.410156 153.917969 496.652344 99.140625 496.222656 98.191406 C 495.773438 97.425781 495.25 96.710938 494.652344 96.054688 C 494.054688 95.394531 493.398438 94.804688 492.679688 94.28125 C 491.960938 93.757812 491.199219 93.3125 490.386719 92.945312 C 489.578125 92.578125 488.738281 92.300781 487.871094 92.105469 C 487.003906 91.910156 486.128906 91.808594 485.238281 91.792969 C 484.351562 91.78125 483.46875 91.859375 482.597656 92.027344 C 481.722656 92.195312 480.878906 92.449219 480.058594 92.792969 C 479.238281 93.132812 478.460938 93.554688 477.726562 94.058594 C 476.992188 94.558594 476.320312 95.128906 475.703125 95.769531 C 475.085938 96.410156 474.542969 97.109375 474.070312 97.859375 C 473.597656 98.613281 473.207031 99.40625 472.898438 100.238281 C 472.585938 101.074219 472.367188 101.929688 472.230469 102.808594 C 472.097656 103.683594 472.054688 104.566406 472.105469 105.457031 C 472.152344 106.34375 472.289062 107.214844 472.519531 108.074219 C 472.746094 108.933594 473.058594 109.761719 473.457031 110.554688 C 473.855469 111.351562 474.328125 112.097656 474.882812 112.792969 Z M 475.3125 112.792969 " fill-opacity="1" fill-rule="nonzero"/><path fill="#c6a2ba" d="M 465.203125 252.414062 L 396.085938 165.324219 C 395.558594 164.65625 394.96875 164.042969 394.320312 163.492188 C 393.671875 162.9375 392.976562 162.453125 392.234375 162.039062 C 391.488281 161.621094 390.714844 161.28125 389.902344 161.019531 C 389.09375 160.757812 388.265625 160.574219 387.417969 160.476562 C 386.570312 160.375 385.722656 160.359375 384.875 160.425781 C 384.027344 160.492188 383.191406 160.640625 382.371094 160.871094 C 381.550781 161.105469 380.761719 161.414062 380.003906 161.800781 C 379.242188 162.1875 378.527344 162.644531 377.859375 163.171875 C 377.191406 163.699219 376.578125 164.285156 376.027344 164.933594 C 375.472656 165.582031 374.988281 166.277344 374.570312 167.019531 C 374.15625 167.761719 373.816406 168.539062 373.550781 169.351562 C 373.289062 170.160156 373.105469 170.988281 373.003906 171.835938 C 372.90625 172.679688 372.886719 173.527344 372.953125 174.378906 C 373.019531 175.226562 373.167969 176.0625 373.398438 176.882812 C 373.628906 177.703125 373.9375 178.492188 374.324219 179.25 C 374.710938 180.011719 375.167969 180.726562 375.695312 181.394531 L 443.949219 267.792969 C 447.5625 274.8125 450.496094 282.109375 452.746094 289.675781 C 455 297.242188 456.53125 304.953125 457.34375 312.808594 C 460.253906 328.15625 465.207031 342.816406 472.203125 356.785156 C 472.730469 357.898438 473.402344 358.921875 474.214844 359.847656 C 475.03125 360.773438 475.957031 361.566406 476.996094 362.234375 C 478.035156 362.898438 479.148438 363.40625 480.328125 363.757812 C 481.511719 364.109375 482.71875 364.289062 483.953125 364.300781 C 484.496094 364.300781 485.035156 364.265625 485.570312 364.199219 C 486.109375 364.128906 486.640625 364.03125 487.164062 363.894531 C 487.6875 363.761719 488.203125 363.59375 488.707031 363.394531 C 489.210938 363.195312 489.699219 362.964844 490.175781 362.703125 C 490.648438 362.445312 491.105469 362.15625 491.542969 361.835938 C 491.984375 361.519531 492.398438 361.175781 492.796875 360.804688 C 493.191406 360.4375 493.5625 360.042969 493.910156 359.625 C 494.253906 359.210938 494.574219 358.773438 494.863281 358.316406 C 495.15625 357.859375 495.417969 357.386719 495.652344 356.898438 C 495.882812 356.410156 496.082031 355.90625 496.253906 355.390625 C 496.421875 354.878906 496.558594 354.355469 496.660156 353.824219 C 496.765625 353.292969 496.835938 352.753906 496.871094 352.214844 C 496.910156 351.675781 496.910156 351.132812 496.878906 350.59375 C 496.847656 350.050781 496.785156 349.515625 496.683594 348.984375 C 496.585938 348.449219 496.457031 347.925781 496.289062 347.410156 C 496.125 346.894531 495.929688 346.390625 495.703125 345.898438 C 489.894531 334.292969 485.660156 322.140625 483.003906 309.4375 C 482.0625 299.417969 480.089844 289.601562 477.09375 279.992188 C 474.09375 270.386719 470.128906 261.191406 465.203125 252.414062 Z M 465.203125 252.414062 " fill-opacity="1" fill-rule="nonzero"/><path fill="#c6a2ba" d="M 455.871094 500.46875 C 459.015625 499.027344 461.902344 497.191406 464.542969 494.960938 C 467.183594 492.730469 469.476562 490.1875 471.425781 487.335938 C 491.039062 455.796875 530.78125 366.375 530.347656 337 C 529.511719 330.300781 530.117188 323.734375 532.164062 317.300781 C 548.492188 311.078125 550.652344 332.851562 548.492188 350.046875 C 545.296875 374.152344 539.851562 401.886719 555.921875 414.671875 C 568.625 425.128906 586.25 419.25 592.039062 417.351562 L 605.949219 412.597656 C 606.753906 412.316406 607.523438 411.957031 608.257812 411.519531 C 608.992188 411.085938 609.679688 410.582031 610.316406 410.011719 C 610.949219 409.441406 611.523438 408.816406 612.035156 408.132812 C 612.550781 407.449219 612.988281 406.722656 613.359375 405.949219 C 613.726562 405.179688 614.019531 404.382812 614.230469 403.554688 C 614.441406 402.726562 614.570312 401.886719 614.617188 401.035156 C 614.664062 400.179688 614.625 399.332031 614.503906 398.488281 C 614.382812 397.640625 614.179688 396.816406 613.898438 396.011719 C 613.613281 395.203125 613.253906 394.433594 612.820312 393.699219 C 612.382812 392.964844 611.878906 392.28125 611.308594 391.644531 C 610.738281 391.007812 610.113281 390.433594 609.429688 389.921875 C 608.746094 389.410156 608.019531 388.96875 607.25 388.601562 C 606.480469 388.230469 605.679688 387.941406 604.851562 387.730469 C 604.027344 387.519531 603.183594 387.386719 602.332031 387.34375 C 601.480469 387.296875 600.628906 387.332031 599.785156 387.453125 C 598.941406 387.574219 598.113281 387.777344 597.308594 388.0625 L 583.398438 392.726562 C 579.796875 394.378906 576.023438 395.011719 572.082031 394.628906 C 568.363281 389.011719 572.511719 364.820312 573.894531 353.414062 C 578.992188 314.882812 562.921875 288.789062 534.410156 290.171875 C 503.566406 292.847656 503.910156 318.421875 504.257812 337.085938 C 504.257812 357.304688 469.695312 440.160156 449.132812 473.25 C 448.058594 474.5 446.792969 475.507812 445.332031 476.277344 C 408.007812 488.890625 343.898438 507.726562 343.207031 507.898438 C 342.390625 508.140625 341.605469 508.457031 340.851562 508.851562 C 340.097656 509.25 339.390625 509.714844 338.726562 510.25 C 338.0625 510.785156 337.460938 511.378906 336.914062 512.035156 C 336.371094 512.6875 335.894531 513.390625 335.484375 514.136719 C 335.078125 514.886719 334.75 515.667969 334.496094 516.480469 C 334.242188 517.292969 334.070312 518.125 333.980469 518.96875 C 333.890625 519.816406 333.882812 520.664062 333.960938 521.511719 C 334.039062 522.363281 334.199219 523.195312 334.4375 524.011719 C 334.679688 524.828125 335 525.613281 335.394531 526.367188 C 335.789062 527.121094 336.253906 527.832031 336.789062 528.492188 C 337.328125 529.15625 337.921875 529.757812 338.574219 530.304688 C 339.230469 530.847656 339.929688 531.324219 340.679688 531.734375 C 341.425781 532.140625 342.207031 532.46875 343.019531 532.722656 C 343.835938 532.976562 344.664062 533.148438 345.511719 533.238281 C 346.359375 533.328125 347.207031 533.335938 348.054688 533.257812 C 348.902344 533.179688 349.734375 533.023438 350.550781 532.78125 C 350.550781 532.78125 418.894531 512.910156 455.871094 500.46875 Z M 455.871094 500.46875 " fill-opacity="1" fill-rule="nonzero"/><path fill="#c6a2ba" d="M 560.503906 586.175781 C 554.945312 586.425781 549.414062 586.136719 543.914062 585.3125 C 534.441406 583.332031 524.867188 582.261719 515.1875 582.101562 C 505.511719 581.941406 495.90625 582.695312 486.371094 584.359375 C 485.640625 584.484375 484.917969 584.65625 484.210938 584.878906 L 380.53125 623.585938 C 379.820312 623.929688 379.144531 624.335938 378.503906 624.804688 C 377.863281 625.273438 377.273438 625.796875 376.730469 626.371094 C 376.1875 626.949219 375.699219 627.570312 375.273438 628.238281 C 374.84375 628.902344 374.476562 629.601562 374.175781 630.335938 C 373.875 631.066406 373.644531 631.824219 373.480469 632.597656 C 373.316406 633.375 373.226562 634.15625 373.207031 634.949219 C 373.191406 635.742188 373.242188 636.527344 373.367188 637.3125 C 373.492188 638.09375 373.6875 638.855469 373.953125 639.605469 C 374.21875 640.351562 374.550781 641.066406 374.949219 641.75 C 375.347656 642.4375 375.800781 643.082031 376.316406 643.683594 C 376.832031 644.285156 377.398438 644.835938 378.011719 645.335938 C 378.628906 645.832031 379.285156 646.269531 379.980469 646.648438 C 380.679688 647.027344 381.402344 647.339844 382.15625 647.582031 C 382.910156 647.828125 383.679688 648.003906 384.464844 648.105469 C 385.25 648.210938 386.039062 648.242188 386.828125 648.203125 C 387.621094 648.160156 388.402344 648.046875 389.171875 647.863281 L 492.246094 609.589844 C 500.050781 608.316406 507.902344 607.78125 515.804688 607.984375 C 523.707031 608.1875 531.523438 609.125 539.25 610.800781 C 546.40625 611.941406 553.605469 612.375 560.847656 612.09375 C 561.699219 612.082031 562.539062 611.988281 563.371094 611.808594 C 564.203125 611.632812 565.007812 611.375 565.789062 611.039062 C 566.570312 610.703125 567.3125 610.292969 568.011719 609.808594 C 568.710938 609.328125 569.359375 608.78125 569.953125 608.171875 C 570.542969 607.5625 571.070312 606.898438 571.535156 606.1875 C 571.996094 605.472656 572.386719 604.722656 572.699219 603.933594 C 573.015625 603.140625 573.25 602.328125 573.402344 601.492188 C 573.558594 600.65625 573.628906 599.8125 573.621094 598.960938 C 573.609375 598.113281 573.515625 597.269531 573.335938 596.441406 C 573.160156 595.609375 572.902344 594.800781 572.566406 594.019531 C 572.234375 593.238281 571.824219 592.496094 571.34375 591.796875 C 570.859375 591.097656 570.316406 590.449219 569.707031 589.855469 C 569.097656 589.261719 568.4375 588.734375 567.722656 588.269531 C 567.011719 587.804688 566.261719 587.417969 565.46875 587.101562 C 564.679688 586.785156 563.867188 586.550781 563.03125 586.394531 C 562.195312 586.238281 561.351562 586.164062 560.503906 586.175781 Z M 560.503906 586.175781 " fill-opacity="1" fill-rule="nonzero"/><g clip-path="url(#90ee67989a)"><path fill="#c6a2ba" d="M 834.042969 327.667969 C 833.421875 327.035156 832.769531 326.433594 832.085938 325.867188 C 831.40625 325.300781 830.695312 324.769531 829.957031 324.273438 C 829.222656 323.777344 828.460938 323.324219 827.675781 322.90625 C 826.894531 322.492188 826.089844 322.117188 825.265625 321.78125 C 824.445312 321.449219 823.605469 321.160156 822.753906 320.910156 C 821.902344 320.664062 821.039062 320.460938 820.167969 320.300781 C 819.292969 320.140625 818.414062 320.027344 817.53125 319.957031 C 816.644531 319.890625 815.757812 319.867188 814.871094 319.886719 C 813.984375 319.910156 813.101562 319.976562 812.21875 320.089844 C 811.339844 320.203125 810.46875 320.363281 809.601562 320.566406 C 808.738281 320.765625 807.886719 321.015625 807.050781 321.304688 C 806.210938 321.59375 805.386719 321.925781 804.582031 322.300781 C 803.777344 322.675781 802.996094 323.089844 802.234375 323.546875 C 801.472656 324 800.734375 324.492188 800.023438 325.023438 C 799.3125 325.554688 798.628906 326.121094 797.976562 326.722656 C 797.324219 327.320312 796.703125 327.953125 796.113281 328.617188 C 794.730469 309.351562 785.3125 290 764.058594 290.257812 C 762.667969 290.265625 761.28125 290.371094 759.902344 290.578125 C 758.523438 290.785156 757.167969 291.089844 755.835938 291.492188 C 754.5 291.894531 753.203125 292.386719 751.9375 292.976562 C 750.675781 293.5625 749.460938 294.238281 748.292969 295 C 747.128906 295.761719 746.023438 296.605469 744.976562 297.527344 C 743.929688 298.445312 742.957031 299.4375 742.054688 300.5 C 741.148438 301.558594 740.328125 302.679688 739.585938 303.859375 C 738.84375 305.039062 738.1875 306.265625 737.621094 307.539062 C 734.941406 290.257812 723.625 276.605469 705.652344 276.867188 C 683.882812 276.867188 676.191406 297.6875 676.191406 318.769531 C 675.542969 317.265625 674.78125 315.820312 673.90625 314.4375 C 673.03125 313.054688 672.050781 311.75 670.964844 310.523438 C 669.878906 309.296875 668.707031 308.160156 667.441406 307.121094 C 666.175781 306.082031 664.835938 305.148438 663.421875 304.320312 C 662.007812 303.496094 660.539062 302.785156 659.011719 302.195312 C 657.484375 301.601562 655.921875 301.132812 654.320312 300.789062 C 652.71875 300.445312 651.101562 300.230469 649.464844 300.148438 C 647.828125 300.0625 646.199219 300.105469 644.570312 300.28125 C 642.699219 300.40625 640.863281 300.726562 639.0625 301.234375 C 637.261719 301.742188 635.527344 302.433594 633.871094 303.304688 C 632.210938 304.175781 630.660156 305.207031 629.21875 306.398438 C 627.773438 307.59375 626.46875 308.921875 625.300781 310.386719 C 613.726562 324.386719 616.664062 347.886719 618.734375 368.621094 C 619.859375 380.027344 620.980469 388.492188 623.054688 403.179688 C 625.128906 417.871094 627.722656 436.1875 629.363281 453.726562 C 631.523438 476.1875 631.4375 496.320312 631.609375 515.15625 C 632.058594 519.113281 631.484375 522.914062 629.882812 526.558594 C 623.402344 528.375 601.714844 517.054688 591.261719 512.132812 C 556.269531 495.371094 526.375 502.539062 518.945312 530.101562 C 511.945312 560.253906 536.222656 567.773438 554.195312 573.300781 C 573.550781 579.351562 641.632812 637.84375 666.515625 667.824219 C 667.34375 669.25 667.890625 670.773438 668.15625 672.402344 C 668.15625 711.714844 666.773438 778.585938 666.6875 779.277344 C 666.664062 780.128906 666.726562 780.972656 666.871094 781.8125 C 667.015625 782.648438 667.238281 783.464844 667.542969 784.261719 C 667.851562 785.054688 668.230469 785.8125 668.683594 786.53125 C 669.136719 787.25 669.65625 787.917969 670.242188 788.535156 C 670.828125 789.152344 671.46875 789.707031 672.164062 790.199219 C 672.859375 790.691406 673.59375 791.109375 674.371094 791.457031 C 675.148438 791.800781 675.953125 792.070312 676.78125 792.257812 C 677.609375 792.445312 678.453125 792.550781 679.300781 792.574219 C 680.152344 792.597656 680.996094 792.535156 681.835938 792.390625 C 682.675781 792.25 683.492188 792.023438 684.285156 791.71875 C 685.078125 791.414062 685.835938 791.035156 686.558594 790.582031 C 687.277344 790.128906 687.945312 789.609375 688.5625 789.027344 C 689.179688 788.441406 689.734375 787.800781 690.226562 787.105469 C 690.71875 786.410156 691.140625 785.675781 691.484375 784.898438 C 691.832031 784.121094 692.101562 783.320312 692.289062 782.488281 C 692.476562 781.660156 692.582031 780.820312 692.605469 779.96875 C 692.605469 779.363281 694.679688 709.207031 693.988281 669.984375 C 693.664062 666.570312 692.886719 663.265625 691.65625 660.066406 C 690.421875 656.867188 688.78125 653.894531 686.730469 651.148438 C 662.800781 622.636719 589.964844 557.230469 562.058594 548.589844 C 546.851562 543.839844 544.171875 541.335938 543.828125 540.730469 C 543.648438 539.105469 543.824219 537.523438 544.347656 535.976562 C 547.886719 524.832031 566.464844 528.980469 580.289062 535.976562 C 602.320312 546.519531 627.289062 559.996094 644.050781 548.851562 C 660.8125 537.707031 657.441406 519.820312 657.703125 510.058594 C 657.714844 473.109375 654.835938 436.390625 649.0625 399.898438 C 646.988281 385.730469 645.953125 377.695312 644.828125 366.546875 C 643.707031 355.402344 641.027344 331.039062 645.605469 327.667969 C 654.246094 321.535156 658.738281 343.480469 662.28125 371.558594 C 671.613281 449.320312 676.277344 456.664062 683.191406 461.585938 C 684.015625 462.199219 684.898438 462.714844 685.835938 463.136719 C 686.777344 463.558594 687.746094 463.878906 688.753906 464.09375 C 689.757812 464.308594 690.773438 464.417969 691.804688 464.417969 C 692.832031 464.417969 693.847656 464.308594 694.855469 464.09375 C 706.777344 461.5 706.515625 448.972656 706.34375 438.863281 C 706.34375 431.175781 705.652344 421.585938 705.046875 409.488281 C 703.234375 382.617188 702.023438 334.0625 702.457031 320.324219 C 702.457031 308.054688 704.53125 304.6875 705.738281 303.910156 C 706.949219 303.132812 712.566406 303.910156 713.515625 322.742188 C 713.515625 327.324219 718.527344 409.144531 719.648438 432.644531 C 719.628906 437.246094 719.945312 441.824219 720.601562 446.382812 C 720.71875 447.78125 721.023438 449.140625 721.515625 450.457031 C 722.011719 451.769531 722.675781 452.996094 723.507812 454.125 C 724.339844 455.257812 725.3125 456.253906 726.421875 457.117188 C 727.53125 457.980469 728.738281 458.675781 730.039062 459.203125 C 731.34375 459.730469 732.691406 460.070312 734.089844 460.226562 C 735.484375 460.378906 736.875 460.339844 738.261719 460.109375 C 739.648438 459.878906 740.976562 459.460938 742.246094 458.859375 C 743.519531 458.261719 744.683594 457.5 745.742188 456.578125 C 751.703125 451.304688 753.519531 444.136719 755.851562 400.675781 C 756.976562 379.074219 757.148438 363.09375 757.234375 351.515625 C 757.234375 346.417969 757.234375 342.011719 757.234375 338.554688 C 757.234375 326.371094 761.382812 316.953125 764.230469 316.953125 C 767.082031 316.953125 770.019531 316.953125 771.144531 340.28125 C 772.355469 366.203125 774.425781 411.128906 774.601562 423.570312 C 774.601562 450.183594 775.722656 457.441406 781.945312 462.796875 C 782.738281 463.476562 783.597656 464.066406 784.519531 464.5625 C 785.441406 465.058594 786.40625 465.453125 787.410156 465.742188 C 788.417969 466.035156 789.441406 466.214844 790.488281 466.285156 C 791.53125 466.359375 792.570312 466.316406 793.609375 466.167969 C 805.53125 464.4375 806.828125 452.6875 807.433594 447.675781 C 808.035156 442.667969 809.074219 416.3125 809.503906 396.789062 C 809.9375 382.1875 809.503906 356.265625 815.726562 346.675781 C 817.261719 350.320312 818.378906 354.089844 819.078125 357.980469 C 819.777344 361.871094 820.042969 365.792969 819.875 369.746094 C 820.738281 385.988281 819.875 409.230469 819.355469 438.863281 C 818.492188 470.3125 821.082031 505.304688 819.355469 535.457031 C 818.890625 548.796875 817.28125 561.996094 814.527344 575.050781 C 811.769531 588.109375 807.90625 600.832031 802.9375 613.21875 C 798.128906 621.621094 794.148438 630.394531 790.996094 639.550781 C 787.84375 648.703125 785.574219 658.070312 784.191406 667.648438 C 784.148438 668.398438 784.148438 669.148438 784.191406 669.894531 L 788.769531 780.832031 C 788.804688 781.683594 788.921875 782.523438 789.121094 783.351562 C 789.320312 784.179688 789.597656 784.980469 789.957031 785.75 C 790.3125 786.523438 790.742188 787.253906 791.242188 787.945312 C 791.746094 788.632812 792.308594 789.265625 792.933594 789.84375 C 793.558594 790.417969 794.234375 790.929688 794.960938 791.375 C 795.6875 791.820312 796.449219 792.1875 797.25 792.484375 C 798.050781 792.777344 798.867188 792.988281 799.710938 793.121094 C 800.550781 793.253906 801.398438 793.304688 802.246094 793.269531 C 803.097656 793.234375 803.9375 793.121094 804.765625 792.921875 C 805.59375 792.722656 806.394531 792.441406 807.167969 792.085938 C 807.941406 791.730469 808.671875 791.300781 809.359375 790.800781 C 810.046875 790.296875 810.679688 789.734375 811.257812 789.109375 C 811.835938 788.484375 812.347656 787.808594 812.792969 787.082031 C 813.238281 786.355469 813.605469 785.59375 813.898438 784.792969 C 814.195312 783.996094 814.40625 783.175781 814.539062 782.335938 C 814.671875 781.492188 814.722656 780.648438 814.691406 779.796875 L 810.109375 669.894531 C 811.140625 661.992188 812.90625 654.253906 815.40625 646.683594 C 817.902344 639.113281 821.09375 631.847656 824.972656 624.882812 C 832.746094 611.230469 842.25 578.226562 844.757812 536.667969 C 846.832031 505.046875 844.238281 470.917969 844.757812 438.863281 C 846.832031 372.597656 847.609375 342.269531 834.042969 327.667969 Z M 834.042969 327.667969 " fill-opacity="1" fill-rule="nonzero"/></g></svg>