<svg width="110" height="120" viewBox="0 0 110 120" fill="none" xmlns="http://www.w3.org/2000/svg">
<rect x="0.5" y="88.1788" width="109" height="31" rx="15.5" fill="white" stroke="white"/>
<path d="M97.5877 39.0011C97.5905 39.6423 97.5774 40.2832 97.5483 40.9236C97.5188 41.564 97.4738 42.2037 97.4123 42.8421C97.3509 43.4801 97.2735 44.1169 97.1801 44.7514C97.0867 45.3862 96.9773 46.0178 96.8524 46.6475C96.7271 47.2767 96.5866 47.9027 96.4297 48.5255C96.2732 49.1479 96.1012 49.7664 95.9136 50.3808C95.726 50.9952 95.5228 51.6048 95.3045 52.2092C95.0862 52.814 94.8531 53.4132 94.6044 54.0064C94.3562 54.6 94.0932 55.1868 93.8151 55.768C93.5374 56.3488 93.2449 56.9224 92.9385 57.4892C92.6317 58.0559 92.311 58.6151 91.976 59.1663C91.6413 59.7179 91.2927 60.261 90.931 60.7958C90.5689 61.3302 90.1933 61.8561 89.805 62.3725C89.4167 62.8892 89.0153 63.3964 88.6011 63.8939C88.1874 64.3914 87.761 64.8785 87.3227 65.3553C86.8845 65.8324 86.4343 66.2987 85.9722 66.7538C85.5102 67.2093 85.0375 67.6532 84.5533 68.0859C84.0692 68.5186 83.5744 68.9397 83.0689 69.3484C82.5639 69.7574 82.0486 70.1541 81.523 70.5384C80.9979 70.9226 80.4633 71.2941 79.9194 71.6523C79.3754 72.011 78.8228 72.3564 78.2617 72.6886C77.7005 73.0204 77.1311 73.3391 76.554 73.6437C75.9768 73.9487 75.3919 74.2393 74.8 74.5159C74.2085 74.7924 73.6101 75.055 73.0047 75.3032C72.3997 75.5509 71.789 75.7843 71.1721 76.0029C70.5556 76.2218 69.9334 76.4255 69.3067 76.6145C68.6796 76.8034 68.048 76.9771 67.4122 77.1356C66.7765 77.2941 66.1375 77.4374 65.4944 77.5651C64.8513 77.6932 64.2058 77.8053 63.5574 77.9025C62.9085 77.9994 62.2581 78.0807 61.6051 78.1463C60.9526 78.2119 60.2989 78.262 59.6435 78.2964C58.9885 78.3308 58.3327 78.3492 57.6765 78.352C57.0203 78.3548 56.365 78.342 55.7092 78.3136C55.0538 78.2848 54.3996 78.2408 53.7463 78.1807C53.093 78.1207 52.4417 78.045 51.7924 77.9538C51.1428 77.8625 50.496 77.7556 49.8521 77.6336C49.2078 77.5111 48.5671 77.3738 47.9302 77.2205C47.2928 77.0676 46.66 76.8995 46.0312 76.7161C45.4025 76.5328 44.779 76.3343 44.1601 76.1209C43.5416 75.9076 42.9284 75.6798 42.3209 75.4369C41.7139 75.1943 41.113 74.9373 40.5186 74.6656C39.9243 74.3942 39.3369 74.1084 38.7569 73.809C38.1769 73.5092 37.6051 73.1958 37.0406 72.8683C36.4766 72.5413 35.9207 72.2007 35.3735 71.8473C34.8262 71.4934 34.2884 71.1264 33.7596 70.7469C33.2308 70.3675 32.7118 69.9752 32.2031 69.5705C31.6939 69.1662 31.1954 68.7496 30.7072 68.3213C30.2193 67.893 29.7421 67.4531 29.276 67.0016C28.8102 66.5501 28.3556 66.0882 27.9128 65.615C27.47 65.1419 27.0395 64.6584 26.6209 64.1645C26.2026 63.6709 25.7967 63.1674 25.4035 62.6539C25.0103 62.1407 24.6301 61.6184 24.2631 61.0868C23.8961 60.5552 23.543 60.0153 23.203 59.4669C22.8631 58.9185 22.5374 58.3622 22.2253 57.7982C21.9136 57.2342 21.6162 56.6626 21.3327 56.0842C21.0497 55.5062 20.7814 54.9214 20.5274 54.3298C20.2735 53.7386 20.0347 53.1418 19.811 52.539C19.5874 51.9366 19.3789 51.3286 19.1855 50.7162C18.9922 50.1034 18.8144 49.4862 18.6522 48.8649C18.49 48.2437 18.3434 47.6193 18.2123 46.9909C18.0816 46.3625 17.9665 45.7316 17.8674 45.098C17.7683 44.464 17.6851 43.8284 17.618 43.1903C17.5504 42.5527 17.4996 41.9139 17.4643 41.2734C17.4291 40.6334 17.4103 39.9926 17.407 39.3513C17.4041 38.7105 17.4172 38.0697 17.4467 37.4288C17.4758 36.7884 17.5213 36.1492 17.5827 35.5107C17.6442 34.8723 17.7216 34.2359 17.815 33.6014C17.9084 32.9666 18.0173 32.3346 18.1427 31.7054C18.2676 31.0757 18.4085 30.4497 18.565 29.8273C18.7219 29.2045 18.8939 28.5861 19.0815 27.9717C19.2691 27.3572 19.4719 26.748 19.6902 26.1432C19.9085 25.5388 20.142 24.9396 20.3902 24.346C20.6389 23.7528 20.9018 23.1656 21.1795 22.5848C21.4577 22.004 21.7497 21.43 22.0565 20.8633C22.3633 20.2965 22.6841 19.7377 23.0187 19.1861C23.3534 18.635 23.7019 18.0918 24.064 17.557C24.4261 17.0223 24.8013 16.4967 25.1901 15.98C25.5784 15.4632 25.9794 14.9565 26.3935 14.4589C26.8076 13.9614 27.2336 13.4743 27.6723 12.9971C28.1106 12.5204 28.5608 12.0541 29.0228 11.5986C29.4845 11.1435 29.9576 10.6992 30.4417 10.2665C30.9259 9.83381 31.4207 9.41313 31.9258 9.00405C32.4312 8.59538 32.9465 8.19871 33.4716 7.81445C33.9972 7.43019 34.5317 7.05874 35.0753 6.7001C35.6192 6.34146 36.1718 5.99642 36.7334 5.6642C37.2946 5.33197 37.8639 5.01376 38.4411 4.70875C39.0182 4.40415 39.6027 4.11355 40.1946 3.83657C40.7865 3.55998 41.385 3.2978 41.99 3.04963C42.595 2.80147 43.2061 2.56811 43.8226 2.34956C44.4395 2.13101 45.0613 1.92728 45.6884 1.73835C46.3155 1.54942 46.9467 1.3757 47.5824 1.2172C48.2181 1.05869 48.8576 0.915394 49.5006 0.787308C50.1433 0.659622 50.7893 0.547146 51.4377 0.45028C52.0861 0.353415 52.737 0.27216 53.3895 0.206516C54.042 0.140471 54.6962 0.0908379 55.3512 0.0564147C56.0065 0.0219915 56.6623 0.00357905 57.3181 0.000376894C57.9743 -0.00242502 58.6301 0.0103836 59.2855 0.0392031C59.9409 0.0676223 60.5954 0.112052 61.2488 0.172093C61.9017 0.232133 62.5534 0.307784 63.2026 0.399046C63.8519 0.490307 64.4987 0.596779 65.143 0.719262C65.7869 0.841344 66.4275 0.979037 67.0649 1.13194C67.7018 1.28524 68.3347 1.45336 68.9634 1.63668C69.5922 1.82 70.216 2.01814 70.8346 2.23148C71.4535 2.44483 72.0663 2.67298 72.6737 2.91554C73.2812 3.15851 73.8817 3.41548 74.4764 3.68686C75.0708 3.95865 75.6578 4.24404 76.2378 4.54384C76.8178 4.84364 77.39 5.15706 77.9541 5.48408C78.5185 5.8111 79.0743 6.15173 79.6216 6.50557C80.1684 6.8594 80.7067 7.22605 81.2351 7.60591C81.7639 7.98536 82.2829 8.37763 82.792 8.7819C83.3012 9.18657 83.7997 9.60286 84.2875 10.0315C84.7758 10.4598 85.253 10.8997 85.7187 11.3512C86.1848 11.8023 86.6391 12.2647 87.0819 12.7378C87.5247 13.2109 87.9556 13.6944 88.3738 14.1879C88.7924 14.6819 89.1984 15.1854 89.5916 15.6986C89.9848 16.2121 90.3649 16.7345 90.7315 17.266C91.0986 17.7972 91.4521 18.3371 91.792 18.8859C92.1316 19.4343 92.4577 19.9907 92.7694 20.5546C93.0815 21.1186 93.3789 21.6898 93.6619 22.2682C93.945 22.8466 94.2137 23.4314 94.4676 24.0226C94.7212 24.6138 94.96 25.211 95.1836 25.8134C95.4077 26.4162 95.6162 27.0238 95.8095 27.6366C96.0029 28.2494 96.1806 28.8663 96.3428 29.4875C96.5051 30.1087 96.6517 30.7335 96.7824 31.3619C96.9134 31.99 97.0281 32.6212 97.1277 33.2548C97.2268 33.8884 97.3099 34.5245 97.3771 35.1621C97.4443 35.7997 97.4955 36.439 97.5307 37.079C97.5659 37.7194 97.5848 38.3603 97.5877 39.0011Z" fill="#C6A2BA"/>
<path d="M36.4418 24.7278C36.2812 24.7278 36.1211 24.7751 35.9765 24.8531C35.6721 25.0256 35.4956 25.3234 35.4956 25.6681V53.1694C35.4956 53.5141 35.6881 53.8119 35.9765 53.9844C36.1211 54.0628 36.2812 54.1097 36.4418 54.1097C36.6179 54.1097 36.7945 54.0628 36.9387 53.9688L53.5043 44.0337C55.1558 43.0466 56.15 41.3226 56.15 39.4266C56.15 37.5305 55.1558 35.8069 53.5043 34.8195L36.9387 24.8848C36.7945 24.7751 36.6179 24.7278 36.4418 24.7278Z" fill="white"/>
<path d="M36.4418 54.7677C36.169 54.7677 35.8966 54.7053 35.6398 54.564C35.1265 54.2822 34.8058 53.7494 34.8058 53.1694V25.6681C34.8058 25.0885 35.1265 24.5553 35.6398 24.2735C35.8802 24.1482 36.153 24.0698 36.4418 24.0698C36.7465 24.0698 37.0349 24.1482 37.2917 24.3048L53.8569 34.2399C55.717 35.3522 56.8238 37.2799 56.8238 39.4109C56.8238 41.542 55.717 43.4697 53.8569 44.582L37.2917 54.5327C37.0509 54.674 36.7465 54.7677 36.4418 54.7677ZM36.4418 25.4019C36.3934 25.4019 36.3455 25.4175 36.3136 25.4331C36.2333 25.4799 36.169 25.574 36.169 25.6681V53.1694C36.169 53.2635 36.2173 53.3576 36.3136 53.4044C36.3934 53.4516 36.5057 53.4516 36.6019 53.4044L53.1671 43.4697C54.6106 42.5919 55.4925 41.0877 55.4925 39.4266C55.4925 37.7654 54.6266 36.2456 53.1671 35.3838L36.6019 25.4487C36.554 25.4019 36.5057 25.4019 36.4418 25.4019Z" fill="#C6A2BA"/>
<path d="M78.2797 24.7278C78.1036 24.7278 77.927 24.7751 77.7828 24.8687L61.2172 34.8038C59.5657 35.7913 58.5715 37.5149 58.5715 39.411C58.5715 41.307 59.5657 43.031 61.2172 44.0181L77.7828 53.9532C77.943 54.0472 78.1036 54.0941 78.2797 54.0941C78.4403 54.0941 78.6004 54.0472 78.745 53.9688C79.0498 53.7963 79.2259 53.4985 79.2259 53.1538V25.6681C79.2259 25.3234 79.0334 25.0256 78.745 24.8531C78.6004 24.7751 78.4403 24.7278 78.2797 24.7278Z" fill="white"/>
<path d="M78.2798 54.7677C77.9754 54.7677 77.6866 54.6897 77.4298 54.5327L60.8646 44.582C59.0046 43.4697 57.8982 41.542 57.8982 39.4109C57.8982 37.2799 59.0046 35.3522 60.8646 34.2399L77.4298 24.3048C77.6866 24.1482 77.975 24.0698 78.2798 24.0698C78.5526 24.0698 78.8249 24.1322 79.0818 24.2735C79.595 24.5553 79.9158 25.0885 79.9158 25.6681V53.1694C79.9158 53.7494 79.595 54.2822 79.0818 54.564C78.8413 54.6897 78.5685 54.7677 78.2798 54.7677ZM78.2798 25.4019C78.2318 25.4019 78.1835 25.4175 78.1356 25.4487L61.5704 35.3838C60.1269 36.2612 59.245 37.7654 59.245 39.4266C59.245 41.0877 60.1109 42.6079 61.5704 43.4697L78.1356 53.4044C78.2159 53.4516 78.3281 53.4516 78.4243 53.4044C78.5042 53.3576 78.5685 53.2635 78.5685 53.1694V25.6681C78.5685 25.574 78.5206 25.4799 78.4243 25.4331C78.376 25.4019 78.3281 25.4019 78.2798 25.4019Z" fill="#C6A2BA"/>
<path d="M36.602 53.6397C36.3935 53.6397 36.2174 53.5141 36.153 53.3263C36.0887 53.1382 36.1371 52.9345 36.2972 52.8092L56.7595 36.4493C56.968 36.2768 57.2404 36.1828 57.5132 36.1828C57.7856 36.1828 58.0584 36.2768 58.2669 36.4493L78.7451 52.8092C78.9053 52.9345 78.9536 53.1382 78.8893 53.3263C78.825 53.5141 78.6488 53.6397 78.4403 53.6397H36.602Z" fill="white"/>
<path d="M78.4403 54.2978H36.6019C36.121 54.2978 35.6881 54 35.5115 53.5457C35.3514 53.091 35.4956 52.5899 35.8642 52.2921L56.3265 35.9322C56.6632 35.6656 57.0801 35.5247 57.5131 35.5247C57.9461 35.5247 58.3631 35.6656 58.6838 35.9322L79.1456 52.2921C79.5147 52.5899 79.6589 53.091 79.4987 53.5457C79.3701 54 78.9212 54.2978 78.4403 54.2978ZM37.1631 52.9813H77.8791L57.8338 36.9665C57.7376 36.8881 57.6253 36.8568 57.5131 36.8568C57.4009 36.8568 57.2727 36.9037 57.1924 36.9665L37.1631 52.9813Z" fill="#C6A2BA"/>
<path d="M57.5291 35.7285C57.1445 35.7285 56.7754 35.8538 56.4707 36.0887L36.0088 52.4486C35.7041 52.6995 35.5759 53.107 35.72 53.4829C35.8483 53.8591 36.2173 54.0941 36.6179 54.0941H78.4563C78.8573 54.0941 79.2259 53.8435 79.3541 53.4829C79.4828 53.107 79.3701 52.6995 79.0658 52.4486L58.5716 36.0887C58.2828 35.8538 57.9141 35.7285 57.5291 35.7285Z" fill="white"/>
<path d="M78.4403 54.7677H36.6019C35.9125 54.7677 35.303 54.3446 35.0626 53.7178C34.8381 53.091 35.0306 52.3705 35.5599 51.9474L56.0217 35.5876C56.4387 35.2582 56.9679 35.0704 57.4971 35.0704C58.0423 35.0704 58.5556 35.2582 58.9726 35.5876L79.4664 51.9314C79.9956 52.3545 80.2041 53.0598 79.9636 53.7022C79.7392 54.329 79.1297 54.7677 78.4403 54.7677ZM57.5291 36.3865C57.3046 36.3865 57.0801 36.465 56.9036 36.6059L36.4258 52.9657C36.3295 53.0442 36.2972 53.1538 36.3455 53.2635C36.3775 53.3732 36.4897 53.4516 36.6019 53.4516H78.4403C78.5525 53.4516 78.6647 53.3732 78.6967 53.2635C78.7291 53.1538 78.6967 53.0286 78.6164 52.9657L58.1546 36.6059C57.978 36.465 57.7536 36.3865 57.5291 36.3865Z" fill="#C6A2BA"/>
<path d="M57.3689 42.6392C57.7535 42.6392 58.1226 42.5139 58.4269 42.2785L78.8892 25.9187C79.1939 25.6681 79.3221 25.2606 79.1779 24.8848C79.0497 24.5085 78.6807 24.2736 78.2797 24.2736H36.4417C36.0407 24.2736 35.672 24.5241 35.5434 24.8848C35.4152 25.2606 35.5275 25.6681 35.8322 25.9187L56.2945 42.2785C56.6152 42.4979 56.9838 42.6392 57.3689 42.6392Z" fill="white"/>
<path d="M57.3689 43.2972C56.8237 43.2972 56.3105 43.1091 55.8935 42.78L35.4153 26.4202C34.8861 25.9971 34.6776 25.2918 34.9184 24.6494C35.1429 24.0226 35.768 23.5995 36.4578 23.5995H78.2957C78.9855 23.5995 79.595 24.0226 79.8354 24.6494C80.0599 25.2762 79.8674 25.9971 79.3382 26.4202L58.844 42.78C58.427 43.1091 57.8982 43.2972 57.3689 43.2972ZM36.4418 24.916C36.3295 24.916 36.2173 24.9944 36.1849 25.1041C36.153 25.2138 36.1849 25.3391 36.2652 25.4019L56.7275 41.7613C56.9036 41.9026 57.1281 41.9811 57.3526 41.9811C57.5774 41.9811 57.8019 41.9026 57.978 41.7613L78.4403 25.4019C78.5366 25.3235 78.5685 25.2138 78.5206 25.1041C78.4882 24.9944 78.376 24.916 78.2637 24.916H36.4418Z" fill="#C6A2BA"/>
</svg>
