<svg width="29" height="30" viewBox="0 0 29 30" fill="none" xmlns="http://www.w3.org/2000/svg">
<mask id="mask0_300_1148" style="mask-type:luminance" maskUnits="userSpaceOnUse" x="0" y="0" width="29" height="30">
<path d="M0 0H29V30H0V0Z" fill="white"/>
</mask>
<g mask="url(#mask0_300_1148)">
<path d="M7.25 0C6.67819 0 6.21433 0.48001 6.21433 1.07154V2.14292H4.14298C1.86648 2.14292 0 4.07376 0 6.42862V25.7143C0 28.0693 1.86648 30 4.14298 30H24.8572C27.1337 30 29 28.0693 29 25.7143V6.42862C29 4.07376 27.1337 2.14292 24.8572 2.14292H22.7858V1.07154C22.7858 0.48001 22.3218 0 21.75 0C21.1782 0 20.7143 0.48001 20.7143 1.07154V2.14292H15.5358V1.07154C15.5358 0.48001 15.0718 0 14.5 0C13.9282 0 13.4643 0.48001 13.4643 1.07154V2.14292H8.28582V1.07154C8.28582 0.48001 7.82181 0 7.25 0ZM4.14298 4.28585H6.21433V5.35723C6.21433 5.94876 6.67819 6.42862 7.25 6.42862C7.82181 6.42862 8.28582 5.94876 8.28582 5.35723V4.28585H13.4643V5.35723C13.4643 5.94876 13.9282 6.42862 14.5 6.42862C15.0718 6.42862 15.5358 5.94876 15.5358 5.35723V4.28585H20.7143V5.35723C20.7143 5.94876 21.1782 6.42862 21.75 6.42862C22.3218 6.42862 22.7858 5.94876 22.7858 5.35723V4.28585H24.8572C26.0224 4.28585 26.9287 5.22335 26.9287 6.42862V8.57154H2.07149V6.42862C2.07149 5.22335 2.97774 4.28585 4.14298 4.28585ZM2.07149 10.7143H26.9287V25.7143C26.9287 26.9197 26.0224 27.8572 24.8572 27.8572H4.14298C2.97774 27.8572 2.07149 26.9197 2.07149 25.7143V10.7143Z" fill="#C6A2BA"/>
</g>
<path d="M5.66307 14.2105H8.42265C8.80442 14.2105 9.11429 14.4412 9.11429 14.7377V16.8412C9.11429 17.1322 8.80442 17.3684 8.42265 17.3684H5.66307C5.27394 17.3684 4.97144 17.1322 4.97144 16.8412V14.7377C4.97144 14.4412 5.27394 14.2105 5.66307 14.2105Z" fill="#C6A2BA"/>
<path d="M10.6345 14.2105H13.3941C13.783 14.2105 14.0857 14.4412 14.0857 14.7377V16.8412C14.0857 17.1322 13.783 17.3684 13.3941 17.3684H10.6345C10.2527 17.3684 9.94287 17.1322 9.94287 16.8412V14.7377C9.94287 14.4412 10.2527 14.2105 10.6345 14.2105Z" fill="#C6A2BA"/>
<path d="M15.6059 14.2105H18.3653C18.7473 14.2105 19.0572 14.4412 19.0572 14.7377V16.8412C19.0572 17.1322 18.7473 17.3684 18.3653 17.3684H15.6059C15.2168 17.3684 14.9143 17.1322 14.9143 16.8412V14.7377C14.9143 14.4412 15.2168 14.2105 15.6059 14.2105Z" fill="#C6A2BA"/>
<path d="M20.5774 14.2105H23.337C23.7259 14.2105 24.0286 14.4412 24.0286 14.7377V16.8412C24.0286 17.1322 23.7259 17.3684 23.337 17.3684H20.5774C20.1956 17.3684 19.8857 17.1322 19.8857 16.8412V14.7377C19.8857 14.4412 20.1956 14.2105 20.5774 14.2105Z" fill="#C6A2BA"/>
<path d="M5.66307 19.7368H8.42265C8.80442 19.7368 9.11429 20.0321 9.11429 20.3958V23.025C9.11429 23.3958 8.80442 23.6842 8.42265 23.6842H5.66307C5.27394 23.6842 4.97144 23.3958 4.97144 23.025V20.3958C4.97144 20.0321 5.27394 19.7368 5.66307 19.7368Z" fill="#C6A2BA"/>
<path d="M10.6345 19.7368H13.3941C13.783 19.7368 14.0857 20.0321 14.0857 20.3958V23.025C14.0857 23.3958 13.783 23.6842 13.3941 23.6842H10.6345C10.2527 23.6842 9.94287 23.3958 9.94287 23.025V20.3958C9.94287 20.0321 10.2527 19.7368 10.6345 19.7368Z" fill="#C6A2BA"/>
<path d="M15.6059 19.7368H18.3653C18.7473 19.7368 19.0572 20.0321 19.0572 20.3958V23.025C19.0572 23.3958 18.7473 23.6842 18.3653 23.6842H15.6059C15.2168 23.6842 14.9143 23.3958 14.9143 23.025V20.3958C14.9143 20.0321 15.2168 19.7368 15.6059 19.7368Z" fill="#C6A2BA"/>
<path d="M20.5774 19.7368H23.337C23.7259 19.7368 24.0286 20.0321 24.0286 20.3958V23.025C24.0286 23.3958 23.7259 23.6842 23.337 23.6842H20.5774C20.1956 23.6842 19.8857 23.3958 19.8857 23.025V20.3958C19.8857 20.0321 20.1956 19.7368 20.5774 19.7368Z" fill="#C6A2BA"/>
</svg>
