<svg xmlns="http://www.w3.org/2000/svg" xmlns:xlink="http://www.w3.org/1999/xlink" width="1920" zoomAndPan="magnify" viewBox="0 0 1440 809.999993" height="1080" preserveAspectRatio="xMidYMid meet" version="1.0"><defs><clipPath id="931baeb761"><path d="M 322.699219 7.699219 L 1116.949219 7.699219 L 1116.949219 801.949219 L 322.699219 801.949219 Z M 322.699219 7.699219 " clip-rule="nonzero"/></clipPath></defs><g clip-path="url(#931baeb761)"><path fill="#0f445c" d="M 720 7.699219 C 500.789062 7.699219 322.699219 185.792969 322.699219 405 C 322.699219 624.210938 500.789062 802.300781 720 802.300781 C 939.207031 802.300781 1117.300781 624.210938 1117.300781 405 C 1117.300781 185.792969 939.207031 7.699219 720 7.699219 Z M 633.371094 54.257812 C 611.269531 74.777344 592.03125 102.566406 576.089844 135.242188 C 564.707031 158.582031 554.839844 184.890625 546.746094 213.125 C 499.621094 205.84375 466.28125 195.054688 436.980469 180.390625 C 485.90625 118.785156 554.523438 73.644531 633.371094 54.257812 Z M 806.625 54.257812 C 885.472656 73.644531 954.09375 118.785156 1003.019531 180.390625 C 973.714844 195.054688 940.378906 205.84375 893.253906 213.125 C 885.160156 184.890625 875.292969 158.582031 863.90625 135.242188 C 847.96875 102.566406 828.730469 74.777344 806.625 54.257812 Z M 701.941406 55.386719 L 701.941406 223.847656 C 655.238281 222.984375 615.695312 221.308594 582.863281 217.921875 C 590.121094 193.425781 598.859375 170.894531 608.539062 151.042969 C 634.925781 96.957031 668.144531 64.144531 701.941406 55.386719 Z M 738.058594 55.386719 C 771.851562 64.144531 805.074219 96.957031 831.457031 151.042969 C 841.140625 170.894531 849.875 193.425781 857.136719 217.921875 C 824.300781 221.308594 784.757812 222.984375 738.058594 223.847656 Z M 415.816406 210.300781 C 448.992188 227.464844 486.574219 239.851562 537.996094 248.113281 C 528.480469 290.976562 522.75 337.660156 521.632812 386.941406 L 359.097656 386.941406 C 362.285156 322 382.816406 261.769531 415.816406 210.300781 Z M 1024.183594 210.300781 C 1057.179688 261.769531 1077.710938 322 1080.898438 386.941406 L 918.367188 386.941406 C 917.246094 337.65625 911.519531 290.976562 902 248.113281 C 953.425781 239.851562 991.007812 227.464844 1024.183594 210.300781 Z M 573.832031 252.910156 C 609.523438 256.878906 651.898438 259.328125 701.941406 260.246094 L 701.941406 386.941406 L 557.75 386.941406 C 558.910156 339.0625 564.523438 293.871094 573.832031 252.910156 Z M 866.164062 252.910156 C 875.472656 293.871094 881.089844 339.0625 882.25 386.941406 L 738.058594 386.941406 L 738.058594 260.246094 C 788.101562 259.328125 830.476562 256.878906 866.164062 252.910156 Z M 359.097656 423.058594 L 521.632812 423.058594 C 522.75 472.285156 528.496094 519.125 537.996094 561.890625 C 486.566406 570.082031 448.996094 582.550781 415.816406 599.703125 C 382.816406 548.230469 362.285156 488.003906 359.097656 423.058594 Z M 557.75 423.058594 L 701.941406 423.058594 L 701.941406 549.757812 C 652.03125 550.667969 609.742188 553.183594 574.117188 557.09375 C 564.800781 516.183594 558.910156 470.949219 557.75 423.058594 Z M 738.058594 423.058594 L 882.25 423.058594 C 881.089844 470.949219 875.199219 516.183594 865.882812 557.09375 C 830.257812 553.183594 787.964844 550.667969 738.058594 549.757812 Z M 918.367188 423.058594 L 1080.898438 423.058594 C 1077.710938 488.003906 1057.179688 548.230469 1024.183594 599.703125 C 991.003906 582.550781 953.429688 570.082031 902 561.890625 C 911.503906 519.125 917.25 472.285156 918.367188 423.058594 Z M 701.941406 586.15625 L 701.941406 754.898438 C 668.144531 746.082031 634.925781 712.761719 608.539062 658.675781 C 598.902344 638.921875 590.382812 616.6875 583.144531 592.367188 C 615.917969 589.03125 655.375 587.007812 701.941406 586.15625 Z M 738.058594 586.15625 C 784.625 587.003906 824.082031 589.03125 856.855469 592.363281 C 849.617188 616.6875 841.09375 638.921875 831.457031 658.675781 C 805.074219 712.761719 771.851562 746.082031 738.058594 754.898438 Z M 546.746094 596.878906 C 554.84375 625.101562 564.695312 651.117188 576.089844 674.476562 C 592.03125 707.152344 611.269531 735.160156 633.371094 755.742188 C 554.523438 736.355469 485.90625 691.21875 436.980469 629.613281 C 466.28125 614.96875 499.621094 604.09375 546.746094 596.878906 Z M 893.253906 596.878906 C 940.378906 604.09375 973.714844 614.96875 1003.019531 629.613281 C 954.09375 691.21875 885.472656 736.355469 806.625 755.742188 C 828.730469 735.160156 847.96875 707.152344 863.90625 674.476562 C 875.304688 651.117188 885.15625 625.101562 893.253906 596.878906 Z M 893.253906 596.878906 " fill-opacity="1" fill-rule="nonzero"/></g></svg>