<svg xmlns="http://www.w3.org/2000/svg" xmlns:xlink="http://www.w3.org/1999/xlink" width="1920" zoomAndPan="magnify" viewBox="0 0 1440 809.999993" height="1080" preserveAspectRatio="xMidYMid meet" version="1.0"><defs><clipPath id="55c2bba906"><path d="M 455 149 L 985 149 L 985 769.746094 L 455 769.746094 Z M 455 149 " clip-rule="nonzero"/></clipPath><clipPath id="7d0f52345d"><path d="M 343.242188 40 L 1096.832031 40 L 1096.832031 422 L 343.242188 422 Z M 343.242188 40 " clip-rule="nonzero"/></clipPath></defs><g clip-path="url(#55c2bba906)"><path fill="#0f445c" d="M 464.660156 390.480469 L 712.125 152.558594 C 716.5625 148.285156 723.574219 148.332031 727.949219 152.605469 L 727.957031 152.605469 L 728.03125 152.667969 L 972.890625 390.519531 L 972.964844 390.589844 L 980.964844 397.753906 C 983.472656 399.996094 984.75 403.113281 984.75 406.226562 L 984.796875 406.226562 L 984.796875 758.472656 C 984.796875 764.78125 979.6875 769.890625 973.378906 769.890625 L 798.03125 769.890625 L 798.03125 555.710938 C 798.03125 549.410156 792.917969 544.292969 786.609375 544.292969 L 653.464844 544.292969 C 647.15625 544.292969 642.046875 549.410156 642.046875 555.710938 L 642.046875 769.890625 L 466.6875 769.890625 C 460.386719 769.890625 455.269531 764.78125 455.269531 758.472656 L 455.269531 404.324219 C 455.269531 400.789062 456.882812 397.632812 459.398438 395.542969 L 464.660156 390.480469 " fill-opacity="1" fill-rule="evenodd"/></g><g clip-path="url(#7d0f52345d)"><path fill="#0f445c" d="M 720.039062 94.25 L 381.765625 415.480469 C 372.636719 424.144531 358.191406 423.785156 349.519531 414.675781 C 340.847656 405.554688 341.199219 391.085938 350.335938 382.421875 L 704.324219 46.265625 C 713.128906 37.90625 726.945312 37.914062 735.753906 46.265625 L 1089.742188 382.421875 C 1098.867188 391.085938 1099.226562 405.554688 1090.546875 414.675781 C 1081.875 423.785156 1067.4375 424.144531 1058.308594 415.480469 L 720.039062 94.25 " fill-opacity="1" fill-rule="evenodd"/></g><path fill="#0f445c" d="M 517.492188 261.367188 L 472.605469 325.65625 L 432.390625 325.65625 L 432.390625 128.027344 L 545.796875 128.027344 L 545.796875 257.203125 L 517.492188 261.367188 " fill-opacity="1" fill-rule="evenodd"/></svg>