<svg width="89" height="89" viewBox="0 0 89 89" fill="none" xmlns="http://www.w3.org/2000/svg">
<mask id="mask0_386_648" style="mask-type:luminance" maskUnits="userSpaceOnUse" x="0" y="0" width="89" height="89">
<path d="M0 0H89V89H0V0Z" fill="white"/>
</mask>
<g mask="url(#mask0_386_648)">
<path d="M26.0589 0.305953C21.3258 0.528362 18.0938 1.28693 15.2682 2.39395C12.3422 3.5343 9.86465 5.06011 7.39943 7.53766C4.9301 10.0152 3.41251 12.4969 2.28494 15.4275C1.19071 18.2612 0.448586 21.4932 0.238965 26.2305C0.0293436 30.9719 -0.0163257 32.4853 0.0042255 44.5671C0.0252332 56.6448 0.0800362 58.1623 0.306098 62.9078C0.532617 67.641 1.28707 70.8689 2.39409 73.6985C3.53445 76.6245 5.06026 79.098 7.53781 81.5673C10.0154 84.0367 12.497 85.5501 15.4276 86.6818C18.2573 87.776 21.4934 88.5223 26.2265 88.7278C30.972 88.9374 32.4855 88.9835 44.5631 88.958C56.6449 88.9374 58.1584 88.8826 62.9039 88.6565C67.637 88.43 70.8649 87.671 73.6946 86.5686C76.6206 85.4241 79.0981 83.9024 81.5634 81.4248C84.0281 78.9473 85.5457 76.4656 86.6778 73.535C87.7721 70.7054 88.5183 67.4693 88.7234 62.7402C88.9289 57.9947 88.9791 56.4772 88.9581 44.3995C88.9375 32.3218 88.8786 30.8084 88.6567 26.0629C88.4302 21.3256 87.6757 18.0977 86.5687 15.2681C85.4242 12.3421 83.9025 9.86861 81.425 7.39928C78.9474 4.93406 76.4658 3.41237 73.5352 2.2848C70.7055 1.19056 67.4694 0.444331 62.7363 0.23882C57.9908 0.029655 56.4732 -0.0164709 44.3955 0.00408026C32.3179 0.025088 30.8044 0.079891 26.0589 0.305953ZM26.5786 80.7165C22.2437 80.5279 19.8881 79.8068 18.3157 79.203C16.2364 78.3979 14.7567 77.4338 13.193 75.887C11.6334 74.3315 10.6693 72.8518 9.85597 70.7807C9.24811 69.2129 8.51467 66.8609 8.30916 62.5224C8.08675 57.8354 8.03651 56.4269 8.0155 44.5502C7.9945 32.6781 8.03651 31.2696 8.24202 26.5785C8.42653 22.2436 9.15175 19.888 9.7555 18.3201C10.5602 16.2404 11.5202 14.7607 13.0715 13.197C14.6266 11.6374 16.1067 10.6733 18.1819 9.85994C19.7497 9.24797 22.1012 8.51863 26.4361 8.31312C31.1273 8.09117 32.5316 8.04504 44.4079 8.01993C56.2846 7.99435 57.693 8.03637 62.3841 8.24599C66.7186 8.4346 69.0747 9.15161 70.6425 9.75946C72.7218 10.5646 74.2061 11.52 75.7657 13.0755C77.3248 14.631 78.2934 16.1066 79.1027 18.1859C79.7147 19.7496 80.444 22.1057 80.6495 26.436C80.8715 31.1271 80.9217 32.5356 80.9427 44.4077C80.9637 56.2844 80.9217 57.6929 80.7167 62.3799C80.528 66.7143 79.8069 69.0745 79.2032 70.6423C78.398 72.7176 77.4381 74.2018 75.883 75.7614C74.3275 77.3164 72.852 78.2851 70.7727 79.098C69.2089 79.7104 66.8529 80.4398 62.5225 80.6453C57.8314 80.8672 56.4271 80.9174 44.5462 80.9385C32.6741 80.9595 31.2657 80.9174 26.5745 80.7119M62.8408 20.7054C62.8454 23.6525 65.243 26.0378 68.186 26.0295C71.133 26.025 73.5183 23.6315 73.5142 20.6844C73.5101 17.7374 71.112 15.3516 68.1649 15.3562C65.2179 15.3603 62.8326 17.758 62.8367 20.7009M21.6404 44.5251C21.6656 57.1394 31.911 67.3432 44.5211 67.3181C57.1354 67.293 67.3434 57.0517 67.3182 44.4374C67.2931 31.8272 57.0473 21.6193 44.433 21.6403C31.8233 21.6654 21.6153 31.9108 21.6404 44.5251ZM29.6517 44.5086C29.6389 36.3211 36.2628 29.668 44.4499 29.6557C52.6374 29.6388 59.2901 36.2626 59.307 44.4538C59.3239 52.6414 52.6959 59.2945 44.5088 59.3068C36.3212 59.3237 29.6682 52.6958 29.6558 44.5086" fill="#C6A2BA"/>
</g>
</svg>
