<svg xmlns="http://www.w3.org/2000/svg" xmlns:xlink="http://www.w3.org/1999/xlink" width="1920" zoomAndPan="magnify" viewBox="0 0 1440 809.999993" height="1080" preserveAspectRatio="xMidYMid meet" version="1.0"><defs><clipPath id="567ec86888"><path d="M 532 56.09375 L 908 56.09375 L 908 432 L 532 432 Z M 532 56.09375 " clip-rule="nonzero"/></clipPath><clipPath id="25165f0b71"><path d="M 376 430 L 1064 430 L 1064 753.59375 L 376 753.59375 Z M 376 430 " clip-rule="nonzero"/></clipPath></defs><g clip-path="url(#567ec86888)"><path fill="#0f445c" d="M 907.507812 243.605469 C 907.507812 246.675781 907.433594 249.742188 907.28125 252.808594 C 907.132812 255.871094 906.90625 258.933594 906.605469 261.984375 C 906.304688 265.039062 905.929688 268.085938 905.476562 271.121094 C 905.027344 274.15625 904.503906 277.179688 903.90625 280.1875 C 903.304688 283.199219 902.632812 286.191406 901.886719 289.167969 C 901.144531 292.144531 900.324219 295.101562 899.433594 298.039062 C 898.542969 300.976562 897.582031 303.886719 896.546875 306.777344 C 895.511719 309.667969 894.410156 312.527344 893.234375 315.363281 C 892.058594 318.199219 890.816406 321.003906 889.503906 323.777344 C 888.191406 326.550781 886.8125 329.292969 885.367188 332 C 883.921875 334.707031 882.40625 337.375 880.832031 340.007812 C 879.253906 342.640625 877.609375 345.230469 875.90625 347.78125 C 874.203125 350.335938 872.433594 352.84375 870.605469 355.308594 C 868.777344 357.773438 866.890625 360.191406 864.945312 362.5625 C 862.996094 364.933594 860.992188 367.257812 858.933594 369.53125 C 856.871094 371.804688 854.757812 374.027344 852.585938 376.199219 C 850.417969 378.367188 848.195312 380.484375 845.921875 382.542969 C 843.648438 384.605469 841.324219 386.609375 838.953125 388.554688 C 836.578125 390.503906 834.160156 392.390625 831.695312 394.21875 C 829.230469 396.046875 826.722656 397.8125 824.171875 399.515625 C 821.621094 401.222656 819.027344 402.863281 816.394531 404.441406 C 813.765625 406.019531 811.09375 407.53125 808.386719 408.976562 C 805.683594 410.425781 802.941406 411.804688 800.167969 413.117188 C 797.394531 414.425781 794.589844 415.671875 791.753906 416.84375 C 788.917969 418.019531 786.054688 419.125 783.167969 420.15625 C 780.277344 421.191406 777.363281 422.152344 774.429688 423.042969 C 771.492188 423.933594 768.535156 424.753906 765.558594 425.5 C 762.582031 426.246094 759.585938 426.917969 756.578125 427.515625 C 753.566406 428.113281 750.546875 428.636719 747.511719 429.089844 C 744.472656 429.539062 741.429688 429.914062 738.375 430.214844 C 735.320312 430.515625 732.261719 430.742188 729.195312 430.894531 C 726.132812 431.042969 723.066406 431.117188 719.996094 431.117188 C 716.925781 431.117188 713.859375 431.042969 710.796875 430.894531 C 707.730469 430.742188 704.671875 430.515625 701.617188 430.214844 C 698.5625 429.914062 695.519531 429.539062 692.480469 429.089844 C 689.445312 428.640625 686.425781 428.113281 683.414062 427.515625 C 680.40625 426.917969 677.410156 426.246094 674.433594 425.5 C 671.457031 424.753906 668.5 423.933594 665.5625 423.042969 C 662.628906 422.152344 659.714844 421.191406 656.824219 420.15625 C 653.9375 419.125 651.074219 418.019531 648.238281 416.84375 C 645.402344 415.671875 642.597656 414.425781 639.824219 413.117188 C 637.050781 411.804688 634.308594 410.425781 631.605469 408.976562 C 628.898438 407.53125 626.226562 406.019531 623.597656 404.441406 C 620.964844 402.863281 618.371094 401.222656 615.820312 399.515625 C 613.269531 397.8125 610.761719 396.046875 608.296875 394.21875 C 605.832031 392.390625 603.414062 390.503906 601.039062 388.554688 C 598.667969 386.609375 596.34375 384.605469 594.070312 382.542969 C 591.796875 380.484375 589.574219 378.367188 587.40625 376.199219 C 585.234375 374.027344 583.121094 371.804688 581.058594 369.53125 C 579 367.257812 576.996094 364.933594 575.046875 362.5625 C 573.101562 360.191406 571.214844 357.773438 569.386719 355.308594 C 567.558594 352.84375 565.789062 350.335938 564.085938 347.78125 C 562.382812 345.230469 560.738281 342.640625 559.160156 340.007812 C 557.585938 337.375 556.070312 334.707031 554.625 332 C 553.179688 329.292969 551.800781 326.550781 550.488281 323.777344 C 549.175781 321.003906 547.933594 318.199219 546.757812 315.363281 C 545.582031 312.527344 544.480469 309.667969 543.445312 306.777344 C 542.410156 303.886719 541.449219 300.976562 540.558594 298.039062 C 539.667969 295.101562 538.851562 292.144531 538.105469 289.167969 C 537.359375 286.191406 536.6875 283.199219 536.085938 280.1875 C 535.488281 277.179688 534.964844 274.15625 534.515625 271.121094 C 534.0625 268.085938 533.6875 265.039062 533.386719 261.984375 C 533.085938 258.933594 532.859375 255.871094 532.710938 252.808594 C 532.558594 249.742188 532.484375 246.675781 532.484375 243.605469 C 532.484375 240.539062 532.558594 237.472656 532.710938 234.40625 C 532.859375 231.339844 533.085938 228.28125 533.386719 225.226562 C 533.6875 222.171875 534.0625 219.128906 534.515625 216.09375 C 534.964844 213.058594 535.488281 210.035156 536.085938 207.023438 C 536.6875 204.015625 537.359375 201.023438 538.105469 198.046875 C 538.847656 195.070312 539.667969 192.113281 540.558594 189.175781 C 541.449219 186.238281 542.410156 183.324219 543.445312 180.4375 C 544.480469 177.546875 545.582031 174.683594 546.757812 171.847656 C 547.933594 169.015625 549.175781 166.210938 550.488281 163.433594 C 551.800781 160.660156 553.179688 157.921875 554.625 155.214844 C 556.070312 152.507812 557.585938 149.839844 559.160156 147.207031 C 560.738281 144.574219 562.382812 141.984375 564.085938 139.429688 C 565.789062 136.878906 567.558594 134.371094 569.386719 131.90625 C 571.214844 129.441406 573.101562 127.023438 575.046875 124.652344 C 576.996094 122.277344 579 119.957031 581.058594 117.683594 C 583.121094 115.40625 585.234375 113.1875 587.40625 111.015625 C 589.574219 108.847656 591.796875 106.730469 594.070312 104.667969 C 596.34375 102.609375 598.667969 100.605469 601.039062 98.660156 C 603.414062 96.710938 605.832031 94.824219 608.296875 92.996094 C 610.761719 91.167969 613.269531 89.402344 615.820312 87.695312 C 618.371094 85.992188 620.964844 84.351562 623.597656 82.773438 C 626.226562 81.195312 628.898438 79.683594 631.605469 78.238281 C 634.308594 76.789062 637.050781 75.410156 639.824219 74.097656 C 642.597656 72.785156 645.402344 71.542969 648.238281 70.367188 C 651.074219 69.195312 653.9375 68.089844 656.824219 67.054688 C 659.714844 66.023438 662.628906 65.058594 665.5625 64.167969 C 668.5 63.277344 671.457031 62.460938 674.433594 61.714844 C 677.410156 60.96875 680.40625 60.296875 683.414062 59.699219 C 686.425781 59.097656 689.445312 58.574219 692.484375 58.125 C 695.519531 57.675781 698.5625 57.300781 701.617188 57 C 704.671875 56.699219 707.730469 56.472656 710.796875 56.320312 C 713.859375 56.171875 716.925781 56.09375 719.996094 56.09375 C 723.066406 56.09375 726.132812 56.171875 729.195312 56.320312 C 732.261719 56.472656 735.320312 56.699219 738.375 57 C 741.429688 57.300781 744.472656 57.675781 747.511719 58.125 C 750.546875 58.574219 753.566406 59.097656 756.578125 59.699219 C 759.585938 60.296875 762.582031 60.96875 765.558594 61.714844 C 768.535156 62.460938 771.492188 63.277344 774.429688 64.167969 C 777.363281 65.058594 780.277344 66.023438 783.167969 67.054688 C 786.054688 68.089844 788.917969 69.195312 791.753906 70.367188 C 794.589844 71.542969 797.394531 72.785156 800.167969 74.097656 C 802.941406 75.410156 805.683594 76.789062 808.386719 78.238281 C 811.09375 79.683594 813.765625 81.195312 816.394531 82.773438 C 819.027344 84.351562 821.621094 85.992188 824.171875 87.695312 C 826.722656 89.402344 829.230469 91.167969 831.695312 92.996094 C 834.160156 94.824219 836.578125 96.710938 838.953125 98.660156 C 841.324219 100.605469 843.648438 102.609375 845.921875 104.667969 C 848.195312 106.730469 850.417969 108.847656 852.585938 111.015625 C 854.757812 113.1875 856.871094 115.40625 858.933594 117.683594 C 860.992188 119.957031 862.996094 122.277344 864.945312 124.652344 C 866.890625 127.023438 868.777344 129.441406 870.605469 131.90625 C 872.433594 134.371094 874.203125 136.878906 875.90625 139.429688 C 877.609375 141.984375 879.253906 144.574219 880.828125 147.207031 C 882.40625 149.839844 883.921875 152.507812 885.367188 155.214844 C 886.8125 157.921875 888.191406 160.660156 889.503906 163.433594 C 890.816406 166.210938 892.058594 169.015625 893.234375 171.847656 C 894.410156 174.683594 895.511719 177.546875 896.546875 180.4375 C 897.582031 183.324219 898.542969 186.238281 899.433594 189.175781 C 900.324219 192.113281 901.144531 195.070312 901.886719 198.046875 C 902.632812 201.023438 903.304688 204.015625 903.90625 207.023438 C 904.503906 210.035156 905.027344 213.058594 905.476562 216.09375 C 905.929688 219.128906 906.304688 222.171875 906.605469 225.226562 C 906.90625 228.28125 907.132812 231.339844 907.28125 234.40625 C 907.433594 237.472656 907.507812 240.539062 907.507812 243.605469 Z M 907.507812 243.605469 " fill-opacity="1" fill-rule="nonzero"/></g><g clip-path="url(#25165f0b71)"><path fill="#0f445c" d="M 1063.300781 753.898438 C 1063.300781 603.703125 966.28125 476.832031 832.875 430.1875 C 800.226562 450.710938 761.042969 461.902344 719.996094 461.902344 C 678.949219 461.902344 639.765625 449.777344 607.117188 430.1875 C 472.777344 476.832031 376.691406 603.703125 376.691406 753.898438 Z M 1063.300781 753.898438 " fill-opacity="1" fill-rule="nonzero"/></g></svg>