<svg width="59" height="34" viewBox="0 0 59 34" fill="none" xmlns="http://www.w3.org/2000/svg">
<mask id="mask0_300_1146" style="mask-type:luminance" maskUnits="userSpaceOnUse" x="21" y="2" width="17" height="17">
<path d="M21.7972 2.35455H37.2028V18.1333H21.7972V2.35455Z" fill="white"/>
</mask>
<g mask="url(#mask0_300_1146)">
<path d="M37.1827 10.2254C37.1827 10.3543 37.1796 10.483 37.1734 10.6117C37.1673 10.7403 37.158 10.8688 37.1457 10.9969C37.1334 11.1251 37.118 11.253 37.0995 11.3804C37.0811 11.5078 37.0596 11.6347 37.0351 11.761C37.0105 11.8874 36.9829 12.013 36.9524 12.1379C36.922 12.2629 36.8884 12.387 36.8519 12.5103C36.8154 12.6336 36.776 12.7557 36.7336 12.8771C36.6912 12.9984 36.646 13.1184 36.5979 13.2375C36.5497 13.3565 36.4988 13.4742 36.445 13.5907C36.3912 13.7071 36.3347 13.8222 36.2755 13.9358C36.2163 14.0494 36.1542 14.1614 36.0897 14.2719C36.0251 14.3824 35.9577 14.4912 35.8879 14.5982C35.8181 14.7055 35.7456 14.8107 35.6707 14.9142C35.5958 15.0177 35.5185 15.1191 35.4388 15.2187C35.3589 15.3182 35.2768 15.4158 35.1925 15.5112C35.108 15.6066 35.0214 15.6999 34.9324 15.7911C34.8436 15.8821 34.7525 15.971 34.6594 16.0574C34.5662 16.1439 34.471 16.228 34.3738 16.3097C34.2765 16.3915 34.1775 16.4707 34.0765 16.5475C33.9755 16.6242 33.8727 16.6983 33.7682 16.7698C33.6637 16.8414 33.5574 16.9103 33.4496 16.9766C33.3419 17.0428 33.2324 17.1063 33.1215 17.1669C33.0107 17.2277 32.8984 17.2856 32.7847 17.3407C32.6711 17.3957 32.5562 17.448 32.44 17.4971C32.3238 17.5465 32.2065 17.5929 32.0882 17.6362C31.9698 17.6796 31.8504 17.72 31.7302 17.7574C31.6098 17.7947 31.4887 17.8292 31.3667 17.8605C31.2448 17.8918 31.122 17.92 30.9988 17.9451C30.8754 17.9702 30.7516 17.9922 30.6273 18.0112C30.5028 18.03 30.3781 18.0458 30.2529 18.0584C30.1278 18.071 30.0025 18.0805 29.8768 18.0869C29.7513 18.0932 29.6257 18.0963 29.4999 18.0963C29.3741 18.0963 29.2485 18.0932 29.123 18.0869C28.9974 18.0805 28.872 18.071 28.7469 18.0584C28.6217 18.0458 28.4971 18.03 28.3725 18.0112C28.2482 17.9923 28.1245 17.9702 28.0011 17.9451C27.8778 17.92 27.7551 17.8918 27.6331 17.8605C27.5112 17.8292 27.39 17.7947 27.2696 17.7574C27.1494 17.72 27.0301 17.6796 26.9116 17.6362C26.7933 17.5929 26.676 17.5465 26.5598 17.4971C26.4436 17.448 26.3287 17.3957 26.2151 17.3407C26.1015 17.2856 25.9891 17.2277 25.8784 17.1669C25.7674 17.1063 25.658 17.0428 25.5503 16.9766C25.4424 16.9103 25.3361 16.8414 25.2316 16.7698C25.1271 16.6983 25.0243 16.6242 24.9233 16.5475C24.8224 16.4707 24.7233 16.3915 24.626 16.3097C24.5288 16.228 24.4336 16.1439 24.3405 16.0574C24.2473 15.971 24.1562 15.8821 24.0674 15.7911C23.9784 15.6999 23.8918 15.6066 23.8073 15.5112C23.723 15.4158 23.6409 15.3182 23.561 15.2187C23.4813 15.1191 23.404 15.0177 23.3291 14.9142C23.2542 14.8107 23.1817 14.7055 23.1119 14.5982C23.0421 14.4912 22.9748 14.3824 22.9101 14.2719C22.8456 14.1614 22.7835 14.0494 22.7243 13.9358C22.6651 13.8222 22.6086 13.7071 22.5548 13.5907C22.501 13.4742 22.4501 13.3565 22.402 13.2375C22.3538 13.1184 22.3086 12.9984 22.2662 12.8771C22.2238 12.7557 22.1844 12.6336 22.148 12.5103C22.1115 12.387 22.078 12.2629 22.0474 12.1379C22.0169 12.013 21.9894 11.8874 21.9647 11.761C21.9402 11.6347 21.9188 11.5078 21.9004 11.3804C21.8818 11.253 21.8664 11.1251 21.8541 10.9969C21.8418 10.8688 21.8325 10.7403 21.8264 10.6117C21.8202 10.483 21.8171 10.3543 21.8171 10.2254C21.8171 10.0967 21.8202 9.96799 21.8264 9.83928C21.8325 9.71056 21.8418 9.58218 21.8541 9.45396C21.8664 9.32573 21.8818 9.198 21.9004 9.0706C21.9188 8.9432 21.9402 8.81629 21.9647 8.68987C21.9894 8.56362 22.0169 8.43802 22.0474 8.31308C22.0779 8.18814 22.1115 8.06401 22.148 7.94071C22.1844 7.81741 22.2238 7.69509 22.2662 7.57392C22.3086 7.45259 22.3538 7.3324 22.402 7.21336C22.4501 7.09448 22.501 6.97676 22.5548 6.86018C22.6086 6.74376 22.6651 6.62882 22.7243 6.51519C22.7835 6.40156 22.8456 6.28957 22.9101 6.17906C22.9748 6.06855 23.0421 5.95984 23.1119 5.8526C23.1817 5.74554 23.2542 5.64027 23.3291 5.53681C23.404 5.43334 23.4813 5.33185 23.561 5.23232C23.6409 5.13263 23.723 5.03523 23.8073 4.93981C23.8918 4.84421 23.9784 4.75108 24.0674 4.65992C24.1562 4.56891 24.2473 4.48005 24.3405 4.39347C24.4336 4.30706 24.5288 4.22295 24.626 4.14129C24.7233 4.05947 24.8224 3.98028 24.9233 3.90354C25.0243 3.8268 25.1271 3.75269 25.2316 3.68104C25.3361 3.60955 25.4424 3.54068 25.5503 3.47444C25.658 3.4082 25.7674 3.34474 25.8784 3.28408C25.9891 3.22325 26.1015 3.16537 26.2151 3.11027C26.3287 3.05518 26.4436 3.00304 26.5598 2.95369C26.676 2.9045 26.7933 2.85809 26.9116 2.81464C27.0301 2.77135 27.1494 2.73086 27.2696 2.69347C27.39 2.65609 27.5112 2.62182 27.6331 2.5905C27.7551 2.55918 27.8778 2.53098 28.0011 2.50589C28.1245 2.48064 28.2482 2.45867 28.3727 2.43982C28.4971 2.42096 28.6217 2.40522 28.7469 2.39259C28.872 2.37997 28.9974 2.37046 29.123 2.36406C29.2485 2.35783 29.3741 2.35455 29.4999 2.35455C29.6257 2.35455 29.7513 2.35783 29.8768 2.36406C30.0025 2.37046 30.1278 2.37997 30.2529 2.39259C30.3781 2.40522 30.5028 2.42096 30.6273 2.43982C30.7516 2.45867 30.8754 2.48064 30.9988 2.50589C31.122 2.53098 31.2448 2.55918 31.3667 2.5905C31.4887 2.62182 31.6098 2.65609 31.7302 2.69347C31.8504 2.73086 31.9698 2.77135 32.0882 2.81464C32.2065 2.85809 32.3238 2.9045 32.44 2.95369C32.5562 3.00304 32.6711 3.05518 32.7847 3.11027C32.8984 3.16537 33.0107 3.22325 33.1215 3.28408C33.2324 3.34474 33.3419 3.4082 33.4496 3.47444C33.5574 3.54068 33.6637 3.60955 33.7682 3.68104C33.8727 3.75269 33.9755 3.8268 34.0765 3.90354C34.1775 3.98028 34.2765 4.05947 34.3738 4.14129C34.471 4.22295 34.5662 4.30706 34.6594 4.39347C34.7525 4.48005 34.8436 4.56891 34.9324 4.65992C35.0214 4.75108 35.108 4.84421 35.1925 4.93981C35.2768 5.03523 35.3589 5.13263 35.4388 5.23232C35.5185 5.33185 35.5958 5.43334 35.6707 5.53681C35.7456 5.64027 35.8181 5.74554 35.8879 5.8526C35.9577 5.95984 36.0251 6.06855 36.0896 6.17906C36.1542 6.28957 36.2163 6.40156 36.2755 6.51519C36.3347 6.62882 36.3912 6.74376 36.445 6.86018C36.4988 6.97676 36.5497 7.09448 36.5979 7.21336C36.646 7.3324 36.6912 7.45259 36.7336 7.57392C36.776 7.69509 36.8154 7.81741 36.8519 7.94071C36.8884 8.06401 36.922 8.18814 36.9524 8.31308C36.9829 8.43802 37.0105 8.56362 37.0351 8.68987C37.0596 8.81629 37.0811 8.9432 37.0995 9.0706C37.118 9.198 37.1334 9.32573 37.1457 9.45396C37.158 9.58218 37.1673 9.71056 37.1734 9.83928C37.1796 9.96799 37.1827 10.0967 37.1827 10.2254Z" fill="#C6A2BA"/>
</g>
<mask id="mask1_300_1146" style="mask-type:luminance" maskUnits="userSpaceOnUse" x="15" y="18" width="29" height="14">
<path d="M15.4055 18.0494H43.5944V31.6323H15.4055V18.0494Z" fill="white"/>
</mask>
<g mask="url(#mask1_300_1146)">
<path d="M43.5658 31.6451C43.5658 25.3406 39.5906 20.0152 34.1247 18.0573C32.787 18.9187 31.1816 19.3885 29.4998 19.3885C27.818 19.3885 26.2126 18.8795 24.8749 18.0573C19.3707 20.0152 15.4338 25.3406 15.4338 31.6451H43.5658Z" fill="#C6A2BA"/>
</g>
</svg>
