<svg width="139" height="81" viewBox="0 0 139 81" fill="none" xmlns="http://www.w3.org/2000/svg">
<mask id="mask0_311_644" style="mask-type:luminance" maskUnits="userSpaceOnUse" x="37" y="6" width="64" height="68">
<path d="M37.6503 6.64418H100.196V73.4926H37.6503V6.64418Z" fill="white"/>
</mask>
<g mask="url(#mask0_311_644)">
<path d="M99.2545 68.1236L83.7185 52.7389C88.333 47.6504 90.8613 41.0507 90.8613 34.0494C90.8613 27.0482 88.0927 19.8487 83.0744 14.671C78.0508 9.49329 71.3739 6.64418 64.2742 6.64418C57.1744 6.64418 50.4975 9.49329 45.4743 14.671C40.4507 19.8487 37.687 26.7309 37.687 34.0494C37.687 41.3675 40.4507 48.2498 45.4743 53.4275C50.4975 58.6052 57.1744 61.4543 64.2742 61.4543C69.6292 61.4543 74.739 59.834 79.0844 56.8168L95.053 72.6274C95.6202 73.1873 96.3655 73.4995 97.1539 73.4995C97.942 73.4995 98.7739 73.1475 99.3411 72.5381C100.5 71.2946 100.461 69.3126 99.2545 68.1186V68.1236ZM75.9551 52.0402C72.6141 54.3491 68.6005 55.6969 64.2742 55.6969C52.6749 55.6969 43.2774 46.0054 43.2774 34.0544C43.2774 22.1035 52.6749 12.4069 64.2742 12.4069C75.8734 12.4069 85.2709 22.0985 85.2709 34.0494C85.2709 39.9752 82.9589 45.3462 79.2141 49.2556C78.224 50.2912 77.1278 51.2275 75.9503 52.0402H75.9551Z" fill="#C6A2BA"/>
</g>
</svg>
