<svg xmlns="http://www.w3.org/2000/svg" xmlns:xlink="http://www.w3.org/1999/xlink" width="1920" zoomAndPan="magnify" viewBox="0 0 1440 809.999993" height="1080" preserveAspectRatio="xMidYMid meet" version="1.0"><defs><clipPath id="458232f26c"><path d="M 439 133 L 1001 133 L 1001 791.914062 L 439 791.914062 Z M 439 133 " clip-rule="nonzero"/></clipPath><clipPath id="307e4ec068"><path d="M 320.449219 17.914062 L 1119.632812 17.914062 L 1119.632812 423 L 320.449219 423 Z M 320.449219 17.914062 " clip-rule="nonzero"/></clipPath></defs><g clip-path="url(#458232f26c)"><path fill="#c6a2ba" d="M 449.210938 389.601562 L 711.648438 137.285156 C 716.359375 132.753906 723.792969 132.804688 728.433594 137.335938 L 728.441406 137.335938 L 728.519531 137.402344 L 988.195312 389.644531 L 988.269531 389.71875 L 996.757812 397.316406 C 999.414062 399.695312 1000.769531 402.996094 1000.769531 406.300781 L 1000.820312 406.300781 L 1000.820312 779.859375 C 1000.820312 786.550781 995.402344 791.96875 988.710938 791.96875 L 802.753906 791.96875 L 802.753906 564.828125 C 802.753906 558.148438 797.332031 552.71875 790.644531 552.71875 L 649.441406 552.71875 C 642.75 552.71875 637.332031 558.148438 637.332031 564.828125 L 637.332031 791.96875 L 451.363281 791.96875 C 444.683594 791.96875 439.253906 786.550781 439.253906 779.859375 L 439.253906 404.285156 C 439.253906 400.535156 440.964844 397.1875 443.632812 394.96875 L 449.210938 389.601562 " fill-opacity="1" fill-rule="evenodd"/></g><g clip-path="url(#307e4ec068)"><path fill="#c6a2ba" d="M 720.042969 75.449219 L 361.300781 416.117188 C 351.621094 425.304688 336.304688 424.921875 327.105469 415.261719 C 317.910156 405.589844 318.28125 390.246094 327.96875 381.054688 L 703.375 24.558594 C 712.714844 15.695312 727.367188 15.703125 736.707031 24.558594 L 1112.113281 381.054688 C 1121.792969 390.246094 1122.171875 405.589844 1112.96875 415.261719 C 1103.773438 424.921875 1088.460938 425.304688 1078.78125 416.117188 L 720.042969 75.449219 " fill-opacity="1" fill-rule="evenodd"/></g><path fill="#c6a2ba" d="M 505.238281 252.675781 L 457.640625 320.855469 L 414.992188 320.855469 L 414.992188 111.269531 L 535.261719 111.269531 L 535.261719 248.261719 L 505.238281 252.675781 " fill-opacity="1" fill-rule="evenodd"/></svg>