<svg xmlns="http://www.w3.org/2000/svg" xmlns:xlink="http://www.w3.org/1999/xlink" width="1920" zoomAndPan="magnify" viewBox="0 0 1440 809.999993" height="1080" preserveAspectRatio="xMidYMid meet" version="1.0"><defs><clipPath id="4a9254d66c"><path d="M 392.300781 67.164062 L 1044 67.164062 L 1044 742.914062 L 392.300781 742.914062 Z M 392.300781 67.164062 " clip-rule="nonzero"/></clipPath></defs><g clip-path="url(#4a9254d66c)"><path fill="#0f445c" d="M 1034.191406 688.640625 L 872.3125 533.121094 C 920.394531 481.683594 946.738281 414.96875 946.738281 344.195312 C 946.738281 273.421875 917.890625 200.644531 865.601562 148.304688 C 813.257812 95.964844 743.6875 67.164062 669.710938 67.164062 C 595.734375 67.164062 526.164062 95.964844 473.824219 148.304688 C 421.480469 200.644531 392.683594 270.214844 392.683594 344.195312 C 392.683594 418.171875 421.480469 487.742188 473.824219 540.082031 C 526.164062 592.421875 595.734375 621.222656 669.710938 621.222656 C 725.507812 621.222656 778.75 604.84375 824.027344 574.34375 L 990.414062 734.167969 C 996.324219 739.828125 1004.089844 742.984375 1012.304688 742.984375 C 1020.515625 742.984375 1029.183594 739.425781 1035.09375 733.265625 C 1047.164062 720.695312 1046.761719 700.660156 1034.191406 688.589844 Z M 791.421875 526.058594 C 756.609375 549.398438 714.789062 563.023438 669.710938 563.023438 C 548.851562 563.023438 450.933594 465.054688 450.933594 344.246094 C 450.933594 223.4375 548.851562 125.417969 669.710938 125.417969 C 790.570312 125.417969 888.488281 223.386719 888.488281 344.195312 C 888.488281 404.097656 864.398438 458.390625 825.378906 497.910156 C 815.0625 508.378906 803.640625 517.84375 791.371094 526.058594 Z M 791.421875 526.058594 " fill-opacity="1" fill-rule="nonzero"/></g></svg>