<svg xmlns="http://www.w3.org/2000/svg" xmlns:xlink="http://www.w3.org/1999/xlink" width="1920" zoomAndPan="magnify" viewBox="0 0 1440 809.999993" height="1080" preserveAspectRatio="xMidYMid meet" version="1.0"><defs><clipPath id="8ce5508cc9"><path d="M 356.402344 41.402344 L 1083.902344 41.402344 L 1083.902344 768.902344 L 356.402344 768.902344 Z M 356.402344 41.402344 " clip-rule="nonzero"/></clipPath></defs><g clip-path="url(#8ce5508cc9)"><path fill="#0f445c" d="M 1057.113281 461.871094 C 1071.378906 461.871094 1083.050781 450.195312 1083.050781 435.929688 L 1083.050781 373.207031 C 1083.050781 358.9375 1071.378906 347.265625 1057.113281 347.265625 L 1030.175781 347.265625 C 1015.910156 347.265625 1000.8125 336.101562 996.609375 322.464844 L 973.628906 266.667969 C 966.882812 254.09375 969.613281 235.558594 979.699219 225.476562 L 998.761719 206.410156 C 1008.847656 196.316406 1008.855469 179.8125 998.761719 169.71875 L 954.414062 125.371094 C 944.324219 115.28125 927.816406 115.28125 917.726562 125.371094 L 898.660156 144.4375 C 888.570312 154.527344 870.023438 157.25 857.457031 150.5 L 801.660156 127.523438 C 788.023438 123.332031 776.871094 108.222656 776.871094 93.957031 L 776.871094 67.023438 C 776.871094 52.753906 765.195312 41.082031 750.929688 41.082031 L 688.207031 41.082031 C 673.9375 41.082031 662.265625 52.753906 662.265625 67.023438 L 662.265625 93.957031 C 662.265625 108.222656 651.101562 123.332031 637.476562 127.523438 L 581.675781 150.5 C 569.105469 157.25 550.566406 154.519531 540.484375 144.429688 L 521.417969 125.363281 C 511.328125 115.269531 494.820312 115.269531 484.730469 125.363281 L 440.378906 169.710938 C 430.289062 179.800781 430.289062 196.308594 440.378906 206.398438 L 459.453125 225.464844 C 469.546875 235.558594 472.269531 254.09375 465.523438 266.667969 L 442.542969 322.464844 C 438.347656 336.101562 423.242188 347.257812 408.972656 347.257812 L 382.046875 347.257812 C 367.78125 347.257812 356.109375 358.929688 356.109375 373.195312 L 356.109375 435.929688 C 356.109375 450.195312 367.78125 461.871094 382.046875 461.871094 L 408.972656 461.871094 C 423.242188 461.871094 438.347656 473.023438 442.542969 486.660156 L 465.53125 542.464844 C 472.285156 555.03125 469.554688 573.578125 459.464844 583.660156 L 440.386719 602.734375 C 430.296875 612.816406 430.296875 629.324219 440.386719 639.414062 L 484.730469 683.761719 C 494.820312 693.855469 511.328125 693.84375 521.417969 683.761719 L 540.492188 664.6875 C 550.582031 654.605469 569.121094 651.875 581.6875 658.628906 L 637.484375 681.609375 C 651.121094 685.804688 662.273438 700.902344 662.273438 715.175781 L 662.273438 742.113281 C 662.273438 756.378906 673.945312 768.050781 688.214844 768.050781 L 750.9375 768.050781 C 765.207031 768.050781 776.878906 756.378906 776.878906 742.113281 L 776.878906 715.167969 C 776.878906 700.902344 788.03125 685.804688 801.667969 681.601562 L 857.464844 658.628906 C 870.03125 651.875 888.578125 654.597656 898.660156 664.6875 L 917.742188 683.761719 C 927.824219 693.855469 944.339844 693.84375 954.421875 683.761719 L 998.773438 639.414062 C 1008.855469 629.332031 1008.863281 612.816406 998.773438 602.726562 L 979.707031 583.660156 C 969.617188 573.570312 966.890625 555.019531 973.636719 542.457031 L 996.609375 486.660156 C 1000.804688 473.023438 1015.910156 461.871094 1030.1875 461.871094 Z M 719.566406 554.105469 C 636.980469 554.105469 570.03125 487.152344 570.03125 404.566406 C 570.03125 321.972656 636.980469 255.019531 719.566406 255.019531 C 802.152344 255.019531 869.113281 321.972656 869.113281 404.566406 C 869.113281 487.152344 802.152344 554.105469 719.566406 554.105469 Z M 719.566406 554.105469 " fill-opacity="1" fill-rule="nonzero"/></g></svg>