<svg width="91" height="91" viewBox="0 0 91 91" fill="none" xmlns="http://www.w3.org/2000/svg">
<mask id="mask0_386_642" style="mask-type:luminance" maskUnits="userSpaceOnUse" x="0" y="0" width="91" height="91">
<path d="M0 0H91V91H0V0Z" fill="white"/>
</mask>
<g mask="url(#mask0_386_642)">
<path fill-rule="evenodd" clip-rule="evenodd" d="M77.7319 13.2467C69.179 4.72833 57.805 0.0284424 45.6852 0.0284424C20.7132 0.0284424 0.388747 20.2448 0.379535 45.0974C0.379535 53.04 2.46375 60.798 6.42815 67.6293L0 90.9845L24.018 84.7152C30.6359 88.3088 38.0862 90.1975 45.6672 90.2021H45.6852C70.6525 90.2021 90.982 69.9816 90.9862 45.1336C90.9862 33.0893 86.2848 21.7693 77.7273 13.2467H77.7319ZM45.6852 82.5925H45.6718C38.918 82.5925 32.2863 80.7844 26.5044 77.3708L25.1299 76.5568L10.8766 80.2764L14.6784 66.4512L13.783 65.0343C10.013 59.0711 8.02413 52.1765 8.02873 45.0974C8.03749 24.4454 24.9309 7.6385 45.699 7.6385C55.7571 7.6385 65.2096 11.5422 72.3208 18.6255C79.4315 25.7046 83.342 35.1177 83.3374 45.129C83.3282 65.7856 66.4348 82.5925 45.6806 82.5925H45.6852ZM66.3399 54.5375C65.2096 53.9754 59.6451 51.2498 58.605 50.8765C57.5654 50.4986 56.8151 50.3144 56.0602 51.4386C55.3053 52.5677 53.1354 55.1041 52.4753 55.8554C51.8153 56.6061 51.1553 56.7005 50.0203 56.1339C48.8905 55.5718 45.2421 54.3799 40.9161 50.5439C37.5528 47.5573 35.2788 43.8697 34.6188 42.7406C33.9587 41.6119 34.5511 41.0049 35.1162 40.4424C35.6224 39.939 36.2461 39.125 36.8158 38.4681C37.381 37.8117 37.5708 37.3394 37.9461 36.5881C38.3257 35.8373 38.1359 35.1805 37.8508 34.6138C37.5662 34.0518 35.306 28.5063 34.3613 26.253C33.4433 24.0583 32.5078 24.3551 31.816 24.3194C31.156 24.2878 30.401 24.2786 29.6461 24.2786C28.8912 24.2786 27.666 24.5576 26.6264 25.6863C25.5864 26.8155 22.6662 29.5406 22.6662 35.0815C22.6662 40.6224 26.7213 45.9787 27.2911 46.7346C27.8558 47.4854 35.2742 58.8594 46.6299 63.7393C49.329 64.8997 51.4399 65.5923 53.0856 66.114C55.7977 66.9729 58.266 66.8515 60.2144 66.5593C62.3889 66.2354 66.9097 63.8337 67.8543 61.2025C68.799 58.5718 68.799 56.3185 68.5144 55.8462C68.2297 55.3739 67.4748 55.0949 66.3445 54.5283L66.3399 54.5375Z" fill="#C6A2BA"/>
</g>
</svg>
